<svg id="Layer_1" data-name="Layer 1" xmlns="http://www.w3.org/2000/svg" viewBox="0 0 1080 572.94"><defs><style>.cls-1{fill:#fff;}</style></defs><title>gcba</title><path class="cls-1" d="M404.51,298.21c-.87,63.45-21,125.94-78.3,171.47C265.3,518.11,183.26,511.45,129,455.85c-49-50.12-66.21-110.77-61.38-179,3.3-46.71,18.93-88.94,49.19-125.06,67.35-80.37,176-78.31,240.71,4.29C386.37,193,401.3,236.14,404.51,298.21ZM294,339.21c-2.15,10.32-4.3,20.63-6.53,31.36h10.79V334.09l-4.56,5.41c-1-3,4.61-7.22-1.68-9.29l5.17-9.09-15.46-8.46c4.78-3.47,8.27-6,11.78-8.56,10.21-7.37,9.33-18.47-1.82-23.69-2.09-1-4-2.38-6.51-3.91,2.18-1.91,3.4-3.48,5-4.3,8.35-4.23,11.23-10.72,10.24-20-.86-8-.18-16.23-.18-26.15l18.47,6.14c-15.67,3.18-15.67,3.18-15.67,19.44,0,2.53,0,5.06,0,7.6-.12,6.67,2.6,11.23,9.26,13.32,1.87.59,3.38,2.29,6,4.16-7.44,4.8-16.1,6.24-15.25,18.16s12.74,10.45,17.49,18.49c-3.79,1.68-7.27,2.86-10.32,4.71-2,1.21-5.09,3.92-4.75,5.09,3.55,12.07,7.71,24,11.69,35.91l2.15-.23q12.19-30.75,24.4-61.51l7.57-.87c-.1,3.16-1.15,6.67-.13,9.41,3.89,10.34,8.46,20.43,12.77,30.62s8.7,20.5,13.2,31.12c1.46-1.24,2.19-1.55,2.33-2,19.67-68.26,12.27-132.71-27.72-192.33-1.65-2.46-6.41-3.72-9.83-3.93-10.7-.66-21.47-.26-32.19-.82-13.55-.71-27.09-1.88-40.62-3.06-2.45-.21-4.82-1.4-7.22-2.13,2.14-1.66,4.2-4.62,6.44-4.76,13.55-.87,27.15-.88,40.7-1.62,8.39-.46,16.74-1.7,25.1-2.6,0-1,0-2.09,0-3.14-4-3.6-7.75-7.42-12-10.69-1.68-1.31-4.56-2.39-6.47-1.9-17.71,4.54-35.31,9.52-53,14.15-1.68.44-3.74-.58-5.62-.92,1-1.9,1.53-4.82,3.07-5.51,6.32-2.84,13.09-4.7,19.44-7.49,7.47-3.29,14.66-7.18,24.44-12-7.4-3.78-11.42-6.34-15.8-7.9-2.52-.9-6.53-1.39-8.29,0-9,7-17.28,14.75-26.13,21.87-1.86,1.5-5,1.41-7.55,2l-1.21-3.22,21-28.87-23.66-3.18c-1.14,8.71-1.79,15.94-3.17,23-.61,3.12-2.72,5.95-4.14,8.91-1.42-3.08-3.52-6-4.12-9.25-1.36-7.33-2-14.8-3-23.12l-23.89,3.86c3.32,4.29,5.43,6.92,7.43,9.63,3.95,5.32,8.18,10.47,11.55,16.14,1.06,1.78-.27,5-.55,8-11.78-9.66-21.66-17.92-31.76-25.9a6.84,6.84,0,0,0-5.72-1.05c-5.45,2.25-10.64,5.13-15.93,7.78l-.44,3.36,46.94,19.73c-1.87,2.48-3.06,4.87-3.67,4.73-20.13-4.68-40.21-9.59-61.82-14.84l-14,13.19.85,3.08c8.32.73,16.62,1.71,25,2.12,13.24.65,26.53.71,39.76,1.56,2.46.15,4.76,2.84,7.14,4.37-2.52.91-5,2.45-7.55,2.64-12,.92-24,1.5-36,2.13-11.65.62-23.47,2.55-34.91,1.25-7.33-.84-10.19,1.52-13.56,6.6C93.27,211,81,250.15,81.23,292.64c.1,19.16,3.41,38.34,5.88,57.42.3,2.35,4.43,4.2,6.78,6.28,1.56-4,3.65-8,4.37-12.17.25-1.45-2.9-3.49-2.64-3.21,2.42-4.63,5.82-8.78,6.63-13.38.75-4.26-1.29-9-2.11-13.52l9.57,1.59c-5.46,11-3,20.2,3.74,22.71-.41,4.56-.74,8.37-1.08,12.19l2.84.49c6.64-15.56,14.11-30.85,19.55-46.82,2.52-7.42,1.07-16.18,1.42-24.33l7.13.73c-5.74,17.38,5.1,30.46,11,46,9.77-12.12,3.51-26,8.43-38-4.09,24.24,7.61,44.15,17.19,66.74,3.95-8.21,7.32-14.84,10.36-21.62,2.94-6.6,6.6-13.14,8-20.1s.3-14.17.3-21.29l3,.05v14l1.62.1,10.36-21.24,13.24,14L225.48,301l-12.95-6.16c-12.3,18.48-14.29,32.46-8.82,60.69h10.84V328.12l18.38,5.46c-17.46,5.4-17.46,5.4-15.76,21.16l11.21,4.64-32.66,31.49,74.57,10.77c-9-9.5-17.25-18.19-24.33-25.64,7-6.53,13.07-12,18.92-17.75,5-4.86,9.68-10,14.51-15L258.21,371.1c6.8,0,12.38-.44,17.86.12,6.36.64,8.85-2.19,10.33-8C288.48,355.15,291.42,347.25,294,339.21Zm66.46,67.65c-2.81.5-4.64.77-6.45,1.17-28.29,6.24-56.79,10.24-85.8,6.9-29.25-3.37-58.41-7.61-87.69-10.67-23.08-2.42-45.93.32-69.61,5.34,4.36,6.72,5.4,14.57,15.78,12.88,32.32-5.27,64.52-2.05,96.48,3.14,36.79,6,73.39,9.21,110.6,3C347.32,426.42,355.77,420.69,360.49,406.86ZM130.9,436.49c7.11,10.11,13.79,16.33,26.83,15.2,13.71-1.19,27.77.87,41.62,2.2,33.67,3.22,67.27,7.11,101,10.17,15.21,1.38,22.57-10.72,31.56-20.11-41.47,7.42-81.73-.19-122.17-5.89C184,434.45,158.19,431.75,130.9,436.49Zm146.33,42.13L167.57,464.57l-.42,3.56C201.91,488.88,238.57,493.13,277.23,478.62Zm51.08-90.14c6.32-.69,14,2.46,14.46-5.79,1-18,.3-36,.3-54l-1.43-.25C337.27,348.09,332.9,367.77,328.31,388.48Zm-1.61-5.61c5.34-23.39,10.35-45.37,15.36-67.34-7.08,12.06-11.47,25.23-17.9,37.31C318.69,363.13,319.62,371.84,326.7,382.87Zm48.43-13.16c-8.15-19-16-37.14-23.78-55.31,1.92,16.14,6.22,31.52,9.24,47.14C362.26,370.17,365.86,372.94,375.13,369.71Zm-255.41,2.2,3.25-.66q6.79-29.25,13.6-58.49a286.65,286.65,0,0,0-20.83,45.42C114.45,361.83,118.26,367.28,119.72,371.91Zm230.64-44.1-1.2.41v53l2.72,1c2.64-3.93,8-8.24,7.47-11.73C357.32,356.16,353.51,342,350.36,327.81Zm-44.89,5.74c-3.43,30-2.32,38.12,5,44.57C322.82,361.66,308.09,348.33,305.47,333.55Zm-168.4-5.81-1.41-.34-8.85,38.92c-2.15,9.44-1.2,10.56,10.26,11.15Zm27.88.12c-2.35,19.76-.35,28.06,8.66,38C180.5,350.17,168.07,340,165,327.86Zm-15.28,23.65-3.54-.06c-1.47,9.32-2.95,18.64-4.72,29.85L156.35,378C153.93,368.39,151.8,360,149.67,351.51Zm47.41-22.36-1.67-.34-12.49,27.52,14.16-.63ZM158,337.53l-4.13-.09c-6.26,11.68,2.33,21.68,2.57,32.62l3.31-.32Zm-15-9.63v25.82C150.66,343.91,146,336,143,327.9Zm181.57,59.5L318,370.47C311.13,382.75,311.38,383.39,324.57,387.4ZM149.08,336.5l2.68-.51c3.3-8.89-3.86-14.79-8-21.57Q146.4,325.46,149.08,336.5Z"/><path class="cls-1" d="M556.1,147.28c12.49,8.78,16.09,20.53,13.13,34.43-2.88,13.56-12.93,22.91-27.35,23.51-19.55.81-39.16.2-59.33.2V97.29c21.07,0,41.92-1.54,62.42.43C565.82,99.73,573.53,129.19,556.1,147.28Zm-52.61,10.81v28.77c10.69,0,20.5.23,30.3-.07,9.51-.29,15-5.34,15.44-13.39.43-8.32-5.38-14.75-14.8-15.2C524.34,157.72,514.2,158.09,503.49,158.09Zm-.07-19c10.64,0,21,.48,31.28-.16,6.75-.43,10.8-5.07,11.08-12,.27-6.64-3.58-11.47-9.77-12-10.8-.86-21.72-.24-33.42-.24,0,6.45-.06,11.76,0,17.07C502.67,134,503.08,136.08,503.42,139.09Z"/><path class="cls-1" d="M966.7,384.57h20v117H968.94c-.47-1.76-1.06-4-1.75-6.51-22.87,14.34-42.49,11.75-57.39-10.87-7.51-11.41-8-24.48-3.91-37.46,8-25.46,29.78-33.09,60.81-20.67V384.57Zm0,76.69c-.05-13-9.59-23.63-21.12-23.59s-21.13,10.8-21.19,23.62,9.74,23.56,21.23,23.58S966.74,474.12,966.69,461.26Z"/><path class="cls-1" d="M776.9,501.54c-.48-2.1-.94-4.1-1.44-6.25-22.63,12.12-40.36,10.26-53.33-5.26-13.33-16-13.54-40.71-.46-57,12.6-15.74,30.51-18.13,53.82-6V384.86h19.27V501.54Zm-23.22-16.67c11.3.21,21.62-10.82,21.75-23.27s-9.91-23.74-21.14-23.93S732.79,448.42,732.5,461C732.22,473.27,742.32,484.65,753.68,484.87Z"/><path class="cls-1" d="M575.92,353.82c-3.33,0-5.27-.31-7.08.05-11.34,2.19-17.94-2-19.4-13.74-.88-7.06-5.27-8.93-12-8.54-9.47.53-19-.37-28.48.43-3.1.26-7.41,3.29-8.59,6.13-6.89,16.56-6.63,16.67-26.93,15.08.92-3.06,1.68-5.93,2.66-8.72,10.61-30.43,21.48-60.76,31.71-91.31,2.39-7.13,5.48-10.55,13.32-9.46,5.27.72,10.71.13,16.25.13,1.92,5.2,3.74,9.89,5.4,14.64C553.65,289.79,564.53,321.09,575.92,353.82Zm-36.18-41.9-14.51-42.4-2.07.36c-4.64,13.8-9.28,27.6-14.13,42Z"/><path class="cls-1" d="M579.6,425.24c-11.19,1.05-20.42,1.71-29-8.63-11.4-13.75-32.36-10.91-43.95,3.6C493.8,436.3,495,461.46,509.31,476c12,12.11,30.8,13.53,41.31.47,8.59-10.7,18-8.81,28.51-8.23-6,23.56-29.74,38.73-54.92,35.45-27.4-3.56-46.92-27.13-47.05-56.78-.12-29.36,19.33-53.73,45.49-57C550.31,386.4,572.92,400.16,579.6,425.24Z"/><path class="cls-1" d="M891.08,501.6c-17.42,1.32-17.42,1.32-20.33-5.92-22.84,12-41.13,9.58-54.15-7.26-12.1-15.65-11.26-41.73,1.83-56.43,13.81-15.53,31.92-17.41,51.29-5.34,4.31-6.88,4.81-7,21.36-5.6Zm-62.21-40.41c0,13.1,9.25,23.61,20.93,23.68,11.34.06,21.39-11,21.38-23.5s-9.87-23.62-21.21-23.7C838.34,437.59,828.92,448.08,828.87,461.19Z"/><path class="cls-1" d="M784.21,321.43H724c4.45,15.18,20.48,21.83,31.39,12.4,8.74-7.55,17.37-4.81,26.57-4.95-2.05,16.9-24.23,31-46.74,25.95a42.46,42.46,0,0,1-32.57-49.49c4.47-23,25.7-38.22,48.13-34.54C773.71,274.56,787.66,294.94,784.21,321.43Zm-60.48-17.84h40.11c-3.45-10.28-10.13-14.82-19.34-15.12C734.71,288.16,727.87,293.07,723.73,303.59Z"/><path class="cls-1" d="M746.11,172.84H686.6c2.38,15.11,19.93,22.66,31,12.82,8.7-7.72,17.36-5,26.65-5.21-5.15,19.91-26.23,31.33-47.46,26.3-22.35-5.3-36.61-27.61-31.87-49.87C670,133.12,691.37,118.39,714.1,123S750.37,148.31,746.11,172.84Zm-20.78-17.12c-3.12-10.45-9.92-15.54-20-15.35-9.61.18-16.14,5.54-18.39,15.35Z"/><path class="cls-1" d="M924.67,165.45c-.09,24.43-17.78,42.41-41.48,42.15-23-.24-40.35-18.58-40.35-42.54s18.24-43.09,41.22-42.94C907.22,122.26,924.75,141,924.67,165.45ZM904,165.21c0-13.49-8.74-24.07-20-24.22s-20.37,10.45-20.55,23.85c-.18,13.25,8.76,23.88,20.21,24S904,178.82,904,165.21Z"/><path class="cls-1" d="M791.78,327.83c9.93,0,18.78-1.66,27.21,5.91,3.9,3.5,12.53,2.48,18.92,2.09,2.37-.14,5.46-4,6.29-6.81.39-1.3-3.46-5-6-5.81-5.36-1.8-11.17-2.17-16.65-3.66-6.07-1.65-12.37-3.16-17.87-6-9.92-5.21-12.93-15.82-8.38-26.11,5.32-12,20.72-18.8,38.32-16.86,15.68,1.72,26.1,10.37,29.56,27-9.68-2.59-18.12-4.69-26.47-7.11s-16-3.19-24.38,6c5.89,2.37,10.33,4.61,15,5.94,7.9,2.22,16.25,3.07,23.88,5.9,14.15,5.25,18.66,19.88,10.86,32.67-6.85,11.22-24.1,17.27-40.77,14.29S795.09,343.7,791.78,327.83Z"/><path class="cls-1" d="M931.12,179.65c10.75-.2,19.16-1.64,27.29,5.73,3.92,3.57,12.49,2.77,18.89,2.52,2.54-.1,4.93-4.08,7.38-6.29-2.3-2.26-4.24-5.77-7-6.56-8.78-2.55-18-3.58-26.77-6.16-13.37-3.93-19-12.4-17-24.49a20.94,20.94,0,0,1,3.32-8.73c8.63-11.78,21.25-14.24,34.69-13.26,13.05,1,23.79,6.31,29.64,18.9a9.76,9.76,0,0,1,.72,2.72,15.22,15.22,0,0,1-.38,2.93c-8,0-16.27,3.32-23.73-3.6-1.68-1.55-4.62-2.3-7-2.42-6.19-.29-13.53-1.58-15.76,6.14-.33,1.11,8.2,5.58,13.07,7.21,7.45,2.5,15.59,3.09,22.89,5.9,14.77,5.7,18.85,21.46,9.57,34.33-14.26,19.76-55.43,16.73-66.48-5C933.05,186.88,932.47,183.79,931.12,179.65Z"/><path class="cls-1" d="M579.87,124.72h20.39c0,13.68,0,27.17,0,40.65,0,15.8,4.52,22.74,14.91,23,11,.33,16.74-7.67,16.76-23.58,0-13,0-25.91,0-39.71h19.61V206l-23.48-2.79c-19.11,13.53-49.14.79-48.28-31.93C580.21,156.16,579.87,141,579.87,124.72Z"/><path class="cls-1" d="M831.56,205.22H810.92c0-12.92,0-25.74,0-38.56,0-3.16.12-6.33-.06-9.49-.58-9.8-6.54-15.76-15.46-15.59-8.67.18-15.47,6.54-15.72,15.79-.39,14.54-.14,29.09-.2,43.64,0,1.2-.28,2.4-.48,4.08H759.6V124.66c7,1.31,15.29-5.3,20,5.11,22.83-17.12,52.55-4.32,52,29C831.36,173.89,831.56,189,831.56,205.22Z"/><path class="cls-1" d="M679.71,421h20v79.76c-12.66,3.07-16.74,2.33-20.21-3.62-23.65,16.23-53.35,2.49-51.89-31.32.62-14.52.1-29.09.1-44.47h20.49c0,14.74,0,29.23,0,43.71.06,13.14,5.26,19.63,15.45,19.47s15.92-7.09,16-19.36C679.78,450.62,679.71,436.12,679.71,421Z"/><path class="cls-1" d="M676.17,309.51c-3.58-15.42-8.46-20.7-18.19-19.77-10.52,1-14.89,8.17-14.94,24.35q-.06,18.5-.28,37c0,.56-.46,1.11-.94,2.21H623V272.66c7.14,1.62,15.66-5.49,20.91,5.56,11.49-9.66,24.16-10.9,36.74-3,12.26,7.68,15.06,20.12,14.62,34.31Z"/><path class="cls-1" d="M611.4,501.84H592.15V421.11H611.4Z"/><path class="cls-1" d="M604.61,353.45H585.93V273.19h18.68Z"/><path class="cls-1" d="M611.68,392.67v17.6H592.24v-17.6Z"/><path class="cls-1" d="M585.89,244.37h18.6v17.91h-18.6Z"/><path class="cls-1" d="M343.75,297.3l-13.32-3.87,15.86-43,17.62,4.53c-1.07,1.36-1.4,2.18-1.82,2.23-15.34,1.8-16.84,3.56-14.2,19.68.47,2.82,3.54,5.43,5.85,7.69s5.35,4.24,9.8,7.66l-12.22,4.23Z"/><path class="cls-1" d="M136.18,279.89l-10.31-1.79-1.36-1.92c24.34-10.58,9.22-32.05,16-49.17l15.8,4.7c-14.93,4-14.42,4-15.09,19.17-.48,10.86,1.13,19.93,13.21,24.45l-.63,2.38-10.49,2.92Z"/><path class="cls-1" d="M107.26,287.22c-1.57,12.95-1.57,12.95,14.82,23.51l-12.37,4.92-9.57-1.59-13-2.1c7.6-8.24,19.8-11.93,15.45-24.69Z"/><path class="cls-1" d="M252.43,175.84c31-9.8,55.43,12.46,84.17,15.54-8,9.59-17.05,16.66-29.6,18a33.67,33.67,0,0,1-10.42-.19c-19.57-4.26-29.61,8.56-40.39,21.21-3.42,4-9.56,7.91-14.47,7.93-7.25,0-9,3.14-9.45,8.74s-.55,11.27-.92,19.39c-4.94-2.56-8.95-3.62-11.5-6.15-8.44-8.38-17.37-10.38-28.52-5.5-3.11,1.35-7.77-.83-11.72-1.39,1.1-3.89,1.2-8.61,3.56-11.45,3.12-3.76,7.8-6.42,12.2-8.88,6.61-3.7,6.17-7.59,3-13.93-6.58-13.25-16-18.43-30.75-15.75-7,1.28-14.57.84-21.74,0-4.06-.46-7.85-3.25-11.77-5l.8-2.4c18.4-7.23,36.55-15.21,55.29-21.43,13.6-4.52,26.64.79,38.94,7.25l2.42-1.88-10.15-17.84c2.55-4.63,5.77-13.05,14-12C249.12,152,247.46,166.08,252.43,175.84Zm-66.78,71.87.24,3.54c14.53-9.39,27.38-5.86,39.52,5.11.46-5.83.51-9.64,1.11-13.36,1-6.32,4.29-10,11.38-10.27,10.62-.45,14.64-4.4,15.11-15.18.85-19.65-5.11-38-12.34-55.9-.92-2.28-4-5.36-5.81-5.21-2.38.2-4.52,3.27-4.67,3.4,2.29,7.54,4.76,12.83,5.43,18.35,2.71,22.26-8.62,38-25.07,51C202.43,235.58,194,241.55,185.65,247.71Zm-31.74-49.28c5.81-.46,11.61-.89,17.41-1.41,11.06-1,20.6,1.08,27.35,11.2,10.8,16.2,12.89,16,23.89-.44.88-1.31,1.69-2.67,2.44-4.06,5.45-10.24,3.8-15.4-6.81-20.39a42.9,42.9,0,0,0-9-2.91C187.63,175.71,171.55,189.09,153.91,198.43ZM261.49,219c9.48-18.65,23.37-17.86,38.14-15.45,9,1.48,16.89-1.78,24.29-8.66-13.7-4.61-26.07-9.41-38.81-12.79a77.85,77.85,0,0,0-23.3-2c-2.43.12-6.82,5.3-6.55,7.77C256.24,197.08,258.77,206.19,261.49,219Z"/><path class="cls-1" d="M107.26,287.22l-4.65,0-11.47-1.94-1.74-2.19c16-5.92,15.36-18.76,14.45-32.84l16.28,4.62c-5.49,2.51-12.28,3.44-13.55,6.59-4.4,11,4.87,16,15.07,22.84Z"/></svg>