<svg id="Layer_1" data-name="Layer 1" xmlns="http://www.w3.org/2000/svg" viewBox="0 0 1161 552"><defs><style>.cls-1{fill:none;}.cls-2{fill:#fff;}</style></defs><title>Logo SSDDHH Final</title><rect class="cls-1" width="1161" height="552"/><path class="cls-2" d="M260.19,201.39a3.14,3.14,0,0,1-1.32-2.64,3.35,3.35,0,0,1,3.34-3.43,3.1,3.1,0,0,1,2.12.79c5.81,4.93,11.62,7.3,19.45,7.3,8.28,0,13.73-4.4,13.73-10.47v-.18c0-5.72-3.08-9-16-11.71-14.17-3.08-20.69-7.66-20.69-17.78v-.18c0-9.68,8.54-16.81,20.25-16.81,8.1,0,14,2,19.63,6.08a3.54,3.54,0,0,1,1.5,2.81,3.35,3.35,0,0,1-3.34,3.35,3.26,3.26,0,0,1-2-.62,25.79,25.79,0,0,0-15.93-5.37c-8,0-13.12,4.4-13.12,9.95v.17c0,5.81,3.17,9.07,16.73,12,13.73,3,20.07,8,20.07,17.43v.17c0,10.57-8.81,17.44-21,17.44a36,36,0,0,1-23.33-8.28"/><path class="cls-2" d="M312.49,183V150.24a3.48,3.48,0,1,1,6.95,0v32.31c0,13.29,7.13,20.78,18.84,20.78,11.36,0,18.58-6.87,18.58-20.34V150.24a3.48,3.48,0,1,1,6.95,0v32.22c0,18-10.3,27.29-25.7,27.29-15.23,0-25.62-9.33-25.62-26.76"/><path class="cls-2" d="M375,150.68a3.51,3.51,0,0,1,3.43-3.52h22.8c7,0,12.59,2,16.11,5.46a13.66,13.66,0,0,1,4,9.86v.17c0,8-4.93,12.15-9.77,14.27,7.31,2.2,13.21,6.42,13.21,14.87V192c0,10.56-8.89,16.81-22.36,16.81H378.43a3.51,3.51,0,0,1-3.43-3.52Zm25.09,23.95c8.36,0,14.17-3.79,14.17-11v-.17c0-6.08-4.84-10-13.64-10H381.86v21.22Zm2.46,27.9c9.33,0,15.14-4.13,15.14-11v-.18c0-6.69-5.63-10.56-16.37-10.56H381.86v21.74Z"/><path class="cls-2" d="M432.84,201.39a3.14,3.14,0,0,1-1.32-2.64,3.36,3.36,0,0,1,3.35-3.43,3.07,3.07,0,0,1,2.11.79c5.81,4.93,11.62,7.3,19.46,7.3,8.27,0,13.73-4.4,13.73-10.47v-.18c0-5.72-3.08-9-16-11.71-14.18-3.08-20.69-7.66-20.69-17.78v-.18c0-9.68,8.54-16.81,20.25-16.81,8.1,0,14,2,19.63,6.08a3.56,3.56,0,0,1,1.5,2.81,3.35,3.35,0,0,1-3.35,3.35,3.23,3.23,0,0,1-2-.62,25.84,25.84,0,0,0-15.94-5.37c-8,0-13.12,4.4-13.12,9.95v.17c0,5.81,3.17,9.07,16.73,12,13.73,3,20.07,8,20.07,17.43v.17c0,10.57-8.8,17.44-21,17.44a36,36,0,0,1-23.33-8.28"/><path class="cls-2" d="M486.11,205.26V150.68a3.51,3.51,0,0,1,3.43-3.52h38.3a3.17,3.17,0,0,1,0,6.34H493.06v21h30.82a3.22,3.22,0,0,1,3.17,3.17,3.16,3.16,0,0,1-3.17,3.17H493.06v21.57h35.22a3.17,3.17,0,1,1,0,6.34H489.54a3.52,3.52,0,0,1-3.43-3.53"/><path class="cls-2" d="M537.09,178.15V178c0-17.43,13-31.87,31.16-31.87a31.89,31.89,0,0,1,22,8,3.81,3.81,0,0,1,1.41,2.82,3.58,3.58,0,0,1-3.52,3.44,4.1,4.1,0,0,1-2.29-.8c-4.75-4.22-10.12-7-17.69-7-13.65,0-23.86,11.09-23.86,25.27V178c0,14.26,10.3,25.44,23.86,25.44,7.65,0,13-2.64,18.31-7.48a3.19,3.19,0,0,1,2.2-1,3.46,3.46,0,0,1,3.34,3.35,3.27,3.27,0,0,1-1.14,2.46c-6.08,5.55-12.77,9.07-22.89,9.07-17.78,0-30.9-14-30.9-31.69"/><path class="cls-2" d="M599.51,150.68a3.52,3.52,0,0,1,3.44-3.52H626c7.57,0,13.65,2.29,17.52,6.16a17,17,0,0,1,4.75,12.15v.18c0,10.12-6.86,16-16.46,17.87l15.32,19.72a3.78,3.78,0,0,1,1.14,2.55,3.64,3.64,0,0,1-3.52,3.44,4.08,4.08,0,0,1-3.26-1.85l-17.34-22.54H606.47V205.7a3.48,3.48,0,1,1-7,0Zm25.88,27.91c9.25,0,15.85-4.75,15.85-12.68v-.17c0-7.57-5.81-12.15-15.76-12.15h-19v25Z"/><path class="cls-2" d="M657.88,205.26V150.68a3.52,3.52,0,0,1,3.44-3.52h38.29a3.17,3.17,0,0,1,0,6.34H664.84v21h30.81a3.22,3.22,0,0,1,3.17,3.17,3.16,3.16,0,0,1-3.17,3.17H664.84v21.57h35.21a3.17,3.17,0,1,1,0,6.34H661.32a3.52,3.52,0,0,1-3.44-3.53"/><path class="cls-2" d="M727.88,153.59H710a3.24,3.24,0,0,1-3.26-3.17,3.31,3.31,0,0,1,3.26-3.26h42.78a3.31,3.31,0,0,1,3.26,3.26,3.24,3.24,0,0,1-3.26,3.17H734.92V205.7a3.52,3.52,0,1,1-7,0Z"/><path class="cls-2" d="M752,204.21l25-54.67a4.54,4.54,0,0,1,4.4-3.08h.35a4.45,4.45,0,0,1,4.32,3.08l25,54.58a4.74,4.74,0,0,1,.44,1.76,3.35,3.35,0,0,1-3.35,3.35,3.79,3.79,0,0,1-3.43-2.56l-6.43-14.17h-33.8l-6.43,14.35a3.49,3.49,0,0,1-3.35,2.38,3.15,3.15,0,0,1-3.16-3.17,3.9,3.9,0,0,1,.44-1.85m43.57-18.05-14.17-31.52-14.17,31.52Z"/><path class="cls-2" d="M819.54,150.68a3.51,3.51,0,0,1,3.43-3.52H846c7.57,0,13.64,2.29,17.51,6.16a17,17,0,0,1,4.76,12.15v.18c0,10.12-6.87,16-16.46,17.87l15.31,19.72a3.75,3.75,0,0,1,1.15,2.55,3.64,3.64,0,0,1-3.52,3.44,4.07,4.07,0,0,1-3.26-1.85l-17.34-22.54h-17.7V205.7a3.48,3.48,0,1,1-7,0Zm25.88,27.91c9.24,0,15.85-4.75,15.85-12.68v-.17c0-7.57-5.81-12.15-15.76-12.15h-19v25Z"/><path class="cls-2" d="M878.53,150.24a3.48,3.48,0,1,1,7,0V205.7a3.48,3.48,0,1,1-7,0Zm1.67-9.42a2.4,2.4,0,0,1,.44-1.32l5.28-8a3.74,3.74,0,0,1,3.17-2c2.11,0,4.76,1.41,4.76,2.65a3.17,3.17,0,0,1-1.24,2l-6.6,6.25a5,5,0,0,1-4.14,1.67c-1,0-1.67-.52-1.67-1.23"/><path class="cls-2" d="M894.46,204.21l25-54.67a4.54,4.54,0,0,1,4.4-3.08h.36a4.43,4.43,0,0,1,4.31,3.08l25,54.58a4.55,4.55,0,0,1,.44,1.76,3.34,3.34,0,0,1-3.34,3.35,3.81,3.81,0,0,1-3.44-2.56l-6.42-14.17H907l-6.42,14.35a3.5,3.5,0,0,1-3.35,2.38,3.16,3.16,0,0,1-3.17-3.17,4,4,0,0,1,.44-1.85M938,186.16l-14.18-31.52-14.17,31.52Z"/><path class="cls-2" d="M983.12,150.68a3.51,3.51,0,0,1,3.43-3.52h18c19.37,0,32.75,13.29,32.75,30.64V178c0,17.35-13.38,30.82-32.75,30.82h-18a3.52,3.52,0,0,1-3.43-3.53Zm21.39,51.68c15.59,0,25.53-10.57,25.53-24.21V178c0-13.64-9.94-24.38-25.53-24.38H990.08v48.77Z"/><path class="cls-2" d="M1046.69,205.26V150.68a3.51,3.51,0,0,1,3.43-3.52h38.3a3.17,3.17,0,0,1,0,6.34h-34.78v21h30.82a3.22,3.22,0,0,1,3.17,3.17,3.16,3.16,0,0,1-3.17,3.17h-30.82v21.57h35.22a3.17,3.17,0,1,1,0,6.34h-38.74a3.52,3.52,0,0,1-3.43-3.53"/><path class="cls-2" d="M171.27,245.65a6.73,6.73,0,0,1,6.78-6.78H195.3c19.37,0,32.75,13.3,32.75,30.64v.18c0,17.34-13.38,30.81-32.75,30.81H178.05a6.73,6.73,0,0,1-6.78-6.78Zm24,42.61c11.09,0,18.58-7.48,18.58-18.4v-.17c0-10.92-7.49-18.58-18.58-18.58H184.82v37.15Z"/><path class="cls-2" d="M234.84,293.72V245.65a6.73,6.73,0,0,1,6.77-6.78h34.16a6.09,6.09,0,0,1,6.08,6.08,6,6,0,0,1-6.08,6H248.31v12.51h23.5a6.08,6.08,0,0,1,6.08,6.07,6,6,0,0,1-6.08,6h-23.5v12.94h27.9a6.09,6.09,0,0,1,6.08,6.07,6,6,0,0,1-6.08,6h-34.6a6.72,6.72,0,0,1-6.77-6.78"/><path class="cls-2" d="M288.54,245.65a6.74,6.74,0,0,1,6.78-6.78h21.39c7.84,0,13.91,2.2,18,6.25,3.44,3.44,5.29,8.28,5.29,14.09v.18c0,9.68-4.85,15.67-12.33,18.75l9.42,11.44c1.32,1.67,2.2,3.08,2.2,5.2a6.31,6.31,0,0,1-6.43,6.25,8.12,8.12,0,0,1-6.69-3.53l-13.2-16.72H302.1v13.47a6.78,6.78,0,0,1-13.56,0Zm27.29,23.16c6.61,0,10.39-3.53,10.39-8.72v-.18c0-5.81-4.05-8.8-10.65-8.8H302.1v17.7Z"/><path class="cls-2" d="M346.92,293.72V245.65a6.73,6.73,0,0,1,6.78-6.78h34.15a6.09,6.09,0,0,1,6.08,6.08,6,6,0,0,1-6.08,6H360.39v12.51h23.5a6.08,6.08,0,0,1,6.08,6.07,6,6,0,0,1-6.08,6h-23.5v12.94h27.9a6.09,6.09,0,0,1,6.08,6.07,6,6,0,0,1-6.08,6H353.7a6.72,6.72,0,0,1-6.78-6.78"/><path class="cls-2" d="M397.89,269.86v-.17c0-17.52,13.21-31.87,32.14-31.87,9.24,0,15.49,2.46,20.6,6.25a6.76,6.76,0,0,1,2.64,5.37,6.61,6.61,0,0,1-6.69,6.6,7.09,7.09,0,0,1-4.05-1.32,20.27,20.27,0,0,0-12.59-4.4c-10.39,0-17.87,8.63-17.87,19.19v.18c0,10.56,7.31,19.36,17.87,19.36a19.78,19.78,0,0,0,13.38-4.84,6.28,6.28,0,1,1,8.1,9.6c-5.55,4.84-12.06,7.75-21.92,7.75-18.14,0-31.61-14-31.61-31.7"/><path class="cls-2" d="M460.32,245.12a6.78,6.78,0,0,1,13.56,0v18.14h25V245.12a6.78,6.78,0,0,1,13.56,0v49.13a6.78,6.78,0,0,1-13.56,0V275.76h-25v18.49a6.78,6.78,0,1,1-13.56,0Z"/><path class="cls-2" d="M519.22,269.86v-.17c0-17.52,13.82-31.87,32.84-31.87s32.66,14.17,32.66,31.69v.18c0,17.52-13.82,31.87-32.84,31.87s-32.66-14.18-32.66-31.7m51.33,0v-.17c0-10.57-7.75-19.37-18.67-19.37s-18.49,8.63-18.49,19.19v.18c0,10.56,7.75,19.36,18.67,19.36s18.49-8.62,18.49-19.19"/><path class="cls-2" d="M589.83,294a6.33,6.33,0,0,1-2.55-5.1,6.24,6.24,0,0,1,6.34-6.25,6.48,6.48,0,0,1,3.87,1.23,26,26,0,0,0,15.76,5.55c5.55,0,8.89-2.2,8.89-5.81v-.18c0-3.43-2.11-5.19-12.41-7.84-12.41-3.16-20.43-6.6-20.43-18.83v-.18c0-11.18,9-18.58,21.57-18.58a35.8,35.8,0,0,1,19.55,5.46,6.27,6.27,0,0,1-3.35,11.62,6.44,6.44,0,0,1-3.43-1c-4.49-2.64-8.72-4.13-12.94-4.13-5.2,0-7.93,2.37-7.93,5.37v.17c0,4.05,2.64,5.37,13.3,8.1,12.5,3.26,19.54,7.75,19.54,18.49v.17c0,12.24-9.33,19.11-22.63,19.11a39.8,39.8,0,0,1-23.15-7.4"/><path class="cls-2" d="M663.26,245.12a6.78,6.78,0,0,1,13.56,0v18.14h25V245.12a6.78,6.78,0,0,1,13.56,0v49.13a6.78,6.78,0,0,1-13.56,0V275.76h-25v18.49a6.78,6.78,0,0,1-13.56,0Z"/><path class="cls-2" d="M723.93,274.09v-29a6.78,6.78,0,0,1,13.55,0v28.62c0,10,5,15.23,13.3,15.23s13.29-5,13.29-14.79V245.12a6.78,6.78,0,0,1,13.56,0v28.53c0,18.66-10.48,27.82-27,27.82s-26.67-9.25-26.67-27.38"/><path class="cls-2" d="M786.17,245.3a6.73,6.73,0,0,1,6.78-6.78h1.5a7,7,0,0,1,6.16,3.52L817,268.72,833.45,242a6.64,6.64,0,0,1,6.07-3.43H841a6.74,6.74,0,0,1,6.78,6.78v48.95a6.74,6.74,0,1,1-13.47,0V263.52l-11.89,18.32c-1.41,2.11-3.17,3.43-5.63,3.43s-4.23-1.32-5.64-3.43l-11.7-18v30.63a6.62,6.62,0,0,1-6.7,6.61,6.55,6.55,0,0,1-6.6-6.61Z"/><path class="cls-2" d="M853.88,291.78l21.48-48.51a8.39,8.39,0,0,1,7.92-5.37h.8c3.69,0,6.33,2,7.83,5.37l21.48,48.51a6.64,6.64,0,0,1,.71,2.73,6.43,6.43,0,0,1-6.43,6.52c-3.17,0-5.28-1.85-6.52-4.67L897,286.68H869.9l-4.31,10.12a6.67,6.67,0,0,1-6.25,4.23,6.24,6.24,0,0,1-6.25-6.34,7.21,7.21,0,0,1,.79-2.91M892,274.7l-8.54-20.33-8.54,20.33Z"/><path class="cls-2" d="M919.47,245.3a6.74,6.74,0,0,1,6.78-6.78h1.41c3.26,0,5.19,1.59,7,4l26.15,34.34V245a6.69,6.69,0,0,1,13.38,0v49a6.72,6.72,0,0,1-6.78,6.78H967c-3.25,0-5.19-1.58-7-4l-27.12-35.57v33a6.69,6.69,0,1,1-13.38,0Z"/><path class="cls-2" d="M981,269.86v-.17c0-17.52,13.82-31.87,32.83-31.87s32.66,14.17,32.66,31.69v.18c0,17.52-13.82,31.87-32.83,31.87S981,287.38,981,269.86m51.32,0v-.17c0-10.57-7.75-19.37-18.66-19.37s-18.49,8.63-18.49,19.19v.18c0,10.56,7.75,19.36,18.66,19.36s18.49-8.62,18.49-19.19"/><path class="cls-2" d="M1051.63,294a6.3,6.3,0,0,1-2.55-5.1,6.23,6.23,0,0,1,6.33-6.25,6.52,6.52,0,0,1,3.88,1.23,26,26,0,0,0,15.76,5.55c5.54,0,8.89-2.2,8.89-5.81v-.18c0-3.43-2.12-5.19-12.42-7.84-12.41-3.16-20.42-6.6-20.42-18.83v-.18c0-11.18,9-18.58,21.57-18.58a35.77,35.77,0,0,1,19.54,5.46,6.17,6.17,0,0,1,3,5.37,6.23,6.23,0,0,1-6.33,6.25,6.5,6.5,0,0,1-3.44-1c-4.49-2.64-8.71-4.13-12.94-4.13-5.19,0-7.92,2.37-7.92,5.37v.17c0,4.05,2.64,5.37,13.29,8.1,12.5,3.26,19.55,7.75,19.55,18.49v.17c0,12.24-9.33,19.11-22.63,19.11a39.78,39.78,0,0,1-23.15-7.4"/><path class="cls-2" d="M75.57,368.44l-19.9-27A8,8,0,0,1,54,336.57a6.61,6.61,0,0,1,6.77-6.51c3.09,0,5,1.67,6.7,4.14l15,21.57L97.66,334c1.67-2.46,3.7-4,6.52-4a6.29,6.29,0,0,1,6.6,6.6,8.43,8.43,0,0,1-1.76,4.76l-19.9,26.85V386a6.78,6.78,0,0,1-13.55,0Z"/><path class="cls-2" d="M130.59,337.37a6.73,6.73,0,0,1,6.78-6.78h18.4c14.7,0,23.6,8.71,23.6,21.3v.18c0,14.26-11.1,21.66-24.92,21.66h-10.3V386a6.78,6.78,0,1,1-13.56,0Zm24.3,24.29c6.78,0,10.74-4.05,10.74-9.33v-.17c0-6.08-4.23-9.34-11-9.34H144.15v18.84Z"/><path class="cls-2" d="M183.24,336.84a6.78,6.78,0,0,1,13.56,0v43.05h25.09a6.16,6.16,0,1,1,0,12.32H190a6.73,6.73,0,0,1-6.78-6.78Z"/><path class="cls-2" d="M228.85,365.8v-29a6.78,6.78,0,0,1,13.56,0v28.61c0,10,5,15.23,13.29,15.23s13.29-5,13.29-14.79V336.84a6.78,6.78,0,0,1,13.56,0v28.52c0,18.67-10.47,27.82-27,27.82s-26.68-9.24-26.68-27.38"/><path class="cls-2" d="M288.46,337.37a6.72,6.72,0,0,1,6.78-6.78h21.39c7.83,0,13.91,2.2,18,6.25,3.43,3.43,5.28,8.27,5.28,14.09v.17c0,9.68-4.84,15.67-12.32,18.75L337,381.3c1.33,1.67,2.2,3.08,2.2,5.19a6.3,6.3,0,0,1-6.42,6.25,8.12,8.12,0,0,1-6.69-3.52l-13.21-16.73H302V386a6.78,6.78,0,1,1-13.55,0Zm27.29,23.15c6.6,0,10.39-3.52,10.39-8.72v-.17c0-5.81-4.05-8.8-10.66-8.8H302v17.69Z"/><path class="cls-2" d="M342.52,383.5,364,335a8.36,8.36,0,0,1,7.92-5.37h.79c3.7,0,6.34,2,7.84,5.37L402,383.5a6.61,6.61,0,0,1,.7,2.73,6.42,6.42,0,0,1-6.42,6.51c-3.17,0-5.29-1.85-6.52-4.66l-4.14-9.69H358.54l-4.31,10.13a6.67,6.67,0,0,1-6.26,4.22,6.23,6.23,0,0,1-6.24-6.34,7.17,7.17,0,0,1,.79-2.9m38.12-17.08-8.54-20.34-8.54,20.34Z"/><path class="cls-2" d="M406.35,336.84a6.78,6.78,0,0,1,13.56,0v43.05H445a6.16,6.16,0,1,1,0,12.32H413.13a6.72,6.72,0,0,1-6.78-6.78Z"/><path class="cls-2" d="M454.42,336.84a6.78,6.78,0,0,1,13.56,0V386a6.78,6.78,0,0,1-13.56,0Z"/><path class="cls-2" d="M474.23,385.7a6.34,6.34,0,0,1-2.55-5.11,6.23,6.23,0,0,1,6.34-6.25,6.55,6.55,0,0,1,3.87,1.23,26,26,0,0,0,15.76,5.55c5.55,0,8.89-2.2,8.89-5.81v-.18c0-3.43-2.11-5.19-12.41-7.83-12.42-3.17-20.43-6.6-20.43-18.84v-.18c0-11.18,9-18.57,21.57-18.57a35.74,35.74,0,0,1,19.55,5.46,6.18,6.18,0,0,1,3,5.37,6.24,6.24,0,0,1-6.34,6.25,6.53,6.53,0,0,1-3.43-1c-4.49-2.64-8.72-4.14-13-4.14-5.19,0-7.92,2.38-7.92,5.37v.18c0,4,2.64,5.37,13.3,8.1C513,358.58,520,363.07,520,373.81V374c0,12.24-9.33,19.1-22.63,19.1a39.79,39.79,0,0,1-23.15-7.39"/><path class="cls-2" d="M524.77,337a6.72,6.72,0,0,1,6.78-6.78H533a7,7,0,0,1,6.17,3.52l16.37,26.67L572,333.67a6.64,6.64,0,0,1,6.08-3.43h1.49a6.72,6.72,0,0,1,6.78,6.78V386a6.74,6.74,0,1,1-13.47,0V355.24L561,373.55c-1.41,2.11-3.17,3.43-5.64,3.43s-4.22-1.32-5.63-3.43L538.06,355.5v30.64a6.61,6.61,0,0,1-6.69,6.6,6.53,6.53,0,0,1-6.6-6.6Z"/><path class="cls-2" d="M591.42,361.58v-.18c0-17.52,13.82-31.87,32.84-31.87s32.66,14.18,32.66,31.69v.18c0,17.52-13.82,31.87-32.84,31.87s-32.66-14.17-32.66-31.69m51.32,0v-.18c0-10.56-7.74-19.37-18.66-19.37s-18.49,8.63-18.49,19.19v.18c0,10.57,7.75,19.37,18.67,19.37s18.48-8.63,18.48-19.19"/><path class="cls-2" d="M676.82,361.58v-.18c0-17.52,13.21-31.87,32.13-31.87,9.25,0,15.5,2.47,20.6,6.25a6.8,6.8,0,0,1,2.65,5.37,6.61,6.61,0,0,1-6.69,6.6,7.2,7.2,0,0,1-4.06-1.31A20.23,20.23,0,0,0,708.87,342c-10.39,0-17.88,8.63-17.88,19.19v.18c0,10.57,7.31,19.37,17.88,19.37a19.8,19.8,0,0,0,13.38-4.84,6.28,6.28,0,1,1,8.1,9.59c-5.55,4.84-12.06,7.75-21.92,7.75-18.14,0-31.61-14-31.61-31.69"/><path class="cls-2" d="M736.52,365.8v-29a6.78,6.78,0,1,1,13.55,0v28.61c0,10,5,15.23,13.3,15.23s13.29-5,13.29-14.79V336.84a6.78,6.78,0,1,1,13.56,0v28.52c0,18.67-10.48,27.82-27,27.82s-26.67-9.24-26.67-27.38"/><path class="cls-2" d="M796.12,336.84a6.78,6.78,0,0,1,13.56,0v43.05h25.09a6.16,6.16,0,0,1,0,12.32H802.9a6.72,6.72,0,0,1-6.78-6.78Z"/><path class="cls-2" d="M848.24,343.09h-13a6.25,6.25,0,0,1,0-12.5h39.62a6.25,6.25,0,0,1,0,12.5h-13V386a6.78,6.78,0,1,1-13.56,0Z"/><path class="cls-2" d="M884.69,365.8v-29a6.78,6.78,0,1,1,13.56,0v28.61c0,10,5,15.23,13.29,15.23s13.3-5,13.3-14.79V336.84a6.78,6.78,0,0,1,13.56,0v28.52c0,18.67-10.48,27.82-27,27.82s-26.68-9.24-26.68-27.38"/><path class="cls-2" d="M945.18,337.37a6.72,6.72,0,0,1,6.78-6.78h21.39c7.84,0,13.91,2.2,18,6.25,3.43,3.43,5.29,8.27,5.29,14.09v.17c0,9.68-4.85,15.67-12.33,18.75l9.42,11.45c1.32,1.67,2.2,3.08,2.2,5.19a6.3,6.3,0,0,1-6.43,6.25,8.13,8.13,0,0,1-6.69-3.52l-13.2-16.73H958.74V386a6.78,6.78,0,1,1-13.56,0Zm27.29,23.15c6.6,0,10.39-3.52,10.39-8.72v-.17c0-5.81-4.05-8.8-10.65-8.8H958.74v17.69Z"/><path class="cls-2" d="M999.24,383.5,1020.72,335a8.38,8.38,0,0,1,7.93-5.37h.79c3.7,0,6.34,2,7.83,5.37l21.48,48.51a6.64,6.64,0,0,1,.71,2.73,6.42,6.42,0,0,1-6.43,6.51c-3.17,0-5.28-1.85-6.51-4.66l-4.14-9.69h-27.12L1011,388.52a6.66,6.66,0,0,1-6.25,4.22,6.24,6.24,0,0,1-6.25-6.34,7.17,7.17,0,0,1,.79-2.9m38.12-17.08-8.54-20.34-8.54,20.34Z"/><path class="cls-2" d="M1062.19,336.84a6.78,6.78,0,0,1,13.56,0v43.05h25.09a6.16,6.16,0,1,1,0,12.32H1069a6.73,6.73,0,0,1-6.78-6.78Z"/><polygon class="cls-2" points="181.73 146.06 55.88 289.34 55.88 146.06 181.73 146.06"/></svg>