<svg xmlns="http://www.w3.org/2000/svg" viewBox="0 0 113.59 45.24"><defs><style>.cls-1{fill:#4172a9;}</style></defs><g id="Layer_2" data-name="Layer 2"><g id="Layer_2-2" data-name="Layer 2"><path class="cls-1" d="M23.54,26.18c.46,0,.4-.25.4-.74V23.09c0-.49,0-.64.23-.64,1,0,1.24-.09,1.24-.95V12.75c0-2.38-1.69-2-2.16-2.86-.67-1.17,1.26-1.17.56-3.72a1.37,1.37,0,0,0-1.51-.94,1.37,1.37,0,0,0-1.5.94c-.7,2.55,1.23,2.55.56,3.72-.48.87-2.16.48-2.16,2.86V21.5c0,.86.26.95,1.23.95.28,0,.23.15.23.64v2.35c0,.49-.05.74.4.74Z"/><path class="cls-1" d="M15.89,7.21c-.86.92-2.22,3.06-1.33,4.83,1.8.7,1.66-5.71,3.91-5.6,1.11,1-.33,4.05-.78,5.38-.55,1.64-1,5.08-2.05,6.74-.89,1.39-.22,5.75-.5,7.25-.75.74-2.77.22-3.63.08,0-1.72-.23-3.08-.5-5.83,0-.55-.61-9-.14-10.07,1-2.14,6.27-6.22,7-7s2.88-3,3.75-3c.6.42.24,1.39.11,1.78C20.86,3.91,17.14,6,15.89,7.21"/><path class="cls-1" d="M28.82,7.21c.83.92,2.19,3.06,1.33,4.83-1.83.7-1.69-5.71-3.94-5.6-1.08,1,.36,4.05.8,5.38.56,1.64,1,5.08,2.06,6.74.86,1.39.22,5.75.47,7.25.78.74,2.77.22,3.66.08,0-1.72.2-3.08.47-5.83.06-.55.64-9,.17-10.07-1-2.14-6.27-6.22-7-7S24,0,23.1,0c-.63.42-.25,1.39-.11,1.78.86,2.13,4.58,4.24,5.83,5.43"/><path class="cls-1" d="M8.18,4.34c-.47.44-1.53.75-2.25,1.72-.28-.53.44-1.81,1.31-2.56A10.6,10.6,0,0,1,9.48,2c.28.64-.72,1.61-1.3,2.31"/><path class="cls-1" d="M6.71,7.81a17,17,0,0,0-2.78,2.42,8.13,8.13,0,0,1-.14-4.06c.39-1.28,1-2.7,2.11-3.14a12.38,12.38,0,0,0-.67,3.09C4.76,8,4.48,8,4.59,8.29c.11,0,.73-1,1.48-1.73S8.07,5.48,8.79,5A9.46,9.46,0,0,1,6.71,7.81"/><path class="cls-1" d="M2.79,15.51a9.93,9.93,0,0,1-1.28-5C1.56,9.37,2.12,6.73,3,6.34c-.25,2.39.4,2.61.14,4.58,0,.12-.28,2.17-.28,2.29.34-.06,0-1.9,3.84-4.54-.83,1.45-.44,1.89-1.95,3.81a6.81,6.81,0,0,0-1.91,3"/><path class="cls-1" d="M4.32,17.35a5.26,5.26,0,0,0-.86,2.31C1.53,18.54-.63,14.12.17,11.93c.5,1.66,1.2,2,1.7,3.42.86,2.08.73,2.72,1.28,3.19a7.79,7.79,0,0,1,.61-3.3A18.45,18.45,0,0,1,5.1,13a5.32,5.32,0,0,1-.78,4.34"/><path class="cls-1" d="M6,21.13a25.24,25.24,0,0,1-.44,3.7,8.06,8.06,0,0,1-5-6.73c1,2.28,2.48,2.25,4.4,5.48.16-1.23-.34-.31-.39-2.62s.55-2.5.64-4c.61.67.83,3.34.83,4.17"/><path class="cls-1" d="M8.79,25.94c.25,1.25.36,2.73.56,3.81-1.89-.7-2.37-.17-4.62-1.59-1-.55-2.86-2.89-2.75-4.56,2.23,2.48,2.61,2.2,3.7,3.11s1.8,2,2.53,1.84c0-.66-1.64-2.11-1.42-6.28a11.6,11.6,0,0,1,2,3.67"/><path class="cls-1" d="M12.55,29.05A13.69,13.69,0,0,0,14.49,32a16.36,16.36,0,0,1-3.92.78c-.94,0-4.28-.89-5.39-3.17,1.92,1,2,.78,4.5,1.34a35.39,35.39,0,0,0,3.65.94,15.17,15.17,0,0,1-2.51-2.06c-1-1.3-.75-2.78-1.61-3.86.58-.17,2.86,2.5,3.34,3.11"/><path class="cls-1" d="M36.37,4.34c.44.44,1.53.75,2.23,1.72.3-.53-.45-1.81-1.31-2.56A9.15,9.15,0,0,0,35,2c-.27.64.73,1.61,1.34,2.31"/><path class="cls-1" d="M37.84,7.81a17.88,17.88,0,0,1,2.75,2.42,8.15,8.15,0,0,0,.15-4.06c-.36-1.28-1-2.7-2.12-3.14a10.47,10.47,0,0,1,.67,3.09C39.76,8,40,8,39.93,8.29c-.11,0-.72-1-1.47-1.73s-2-1.08-2.73-1.61a9.81,9.81,0,0,0,2.11,2.86"/><path class="cls-1" d="M41.74,15.51a9.83,9.83,0,0,0,1.28-5C43,9.37,42.4,6.73,41.6,6.34c.22,2.39-.42,2.61-.14,4.58,0,.12.25,2.17.25,2.29-.31-.06,0-1.9-3.81-4.54.81,1.45.42,1.89,1.92,3.81a6.66,6.66,0,0,1,1.92,3"/><path class="cls-1" d="M40.23,17.35a5.57,5.57,0,0,1,.84,2.31c1.92-1.12,4.11-5.54,3.28-7.73-.47,1.66-1.2,2-1.67,3.42-.89,2.08-.75,2.72-1.28,3.19a7.81,7.81,0,0,0-.64-3.3A16.28,16.28,0,0,0,39.43,13a5.33,5.33,0,0,0,.8,4.34"/><path class="cls-1" d="M38.48,21.13a22.33,22.33,0,0,0,.48,3.7,8.1,8.1,0,0,0,5-6.73c-1,2.28-2.48,2.25-4.42,5.48-.17-1.23.33-.31.39-2.62s-.56-2.5-.64-4c-.61.67-.84,3.34-.84,4.17"/><path class="cls-1" d="M35.73,25.94c-.25,1.25-.33,2.73-.53,3.81,1.87-.7,2.34-.17,4.59-1.59,1-.55,2.89-2.89,2.78-4.56-2.22,2.48-2.64,2.2-3.69,3.11s-1.84,2-2.57,1.84c-.05-.66,1.64-2.11,1.45-6.28a11,11,0,0,0-2,3.67"/><path class="cls-1" d="M32,29.05A12,12,0,0,1,30,32a16.69,16.69,0,0,0,3.95.78c.92,0,4.25-.89,5.36-3.17-1.91,1-1.94.78-4.5,1.34a33.53,33.53,0,0,1-3.64.94,14.43,14.43,0,0,0,2.5-2.06c1-1.3.75-2.78,1.64-3.86-.61-.17-2.89,2.5-3.36,3.11"/><path class="cls-1" d="M17.52,36.89,17,36.62a12.2,12.2,0,0,1,9.6-4c6.06.33,5.64,1.75,8.89,1.53.36,0-.27.45-.27.45a11.29,11.29,0,0,1-7.09-.12c-3.9-1.33-6.43-2.14-10.57,2.39"/><path class="cls-1" d="M27.11,36.89l.56-.27a12.08,12.08,0,0,0-9.56-4C12,33,12.44,34.39,9.18,34.17c-.36,0,.28.45.28.45a11.29,11.29,0,0,0,7.09-.12c3.92-1.33,6.45-2.14,10.56,2.39"/><path class="cls-1" d="M59.67,11.24c0,3.45-1.86,5.1-5.65,5.1s-5.67-1.65-5.67-5.1V3.63h3.83v6.76c0,1.27,0,2.85,1.86,2.85s1.81-1.58,1.81-2.85V3.63h3.82Z"/><polygon class="cls-1" points="61.97 3.63 65.88 3.63 69.49 10.27 69.53 10.27 69.53 3.63 73.14 3.63 73.14 16.04 69.42 16.04 65.61 9.26 65.58 9.26 65.58 16.04 61.97 16.04 61.97 3.63"/><polygon class="cls-1" points="75.49 3.63 79.31 3.63 79.31 7.94 82.89 7.94 82.89 3.63 86.72 3.63 86.72 16.04 82.89 16.04 82.89 11.12 79.31 11.12 79.31 16.04 75.49 16.04 75.49 3.63"/><path class="cls-1" d="M96.5,8.25a2,2,0,0,0-2-1.82c-1.79,0-2.36,1.74-2.36,3.41s.57,3.4,2.36,3.4c1.29,0,1.8-.9,2-2.07h3.76a5.34,5.34,0,0,1-5.67,5.17c-4,0-6.29-2.84-6.29-6.5,0-3.92,2.47-6.51,6.29-6.51,3.41,0,5.28,1.81,5.61,4.92Z"/><path class="cls-1" d="M101.87,16h3.83V11.71h2c1.52,0,1.62,1.24,1.72,2.42a8.29,8.29,0,0,0,.32,1.91h3.82a8.31,8.31,0,0,1-.42-2.66,3.39,3.39,0,0,0-1.82-3.09,3.19,3.19,0,0,0,1.86-3.11c0-2.35-1.88-3.55-4-3.55h-7.29Zm3.83-9.46h1.79c1.46,0,1.89.46,1.89,1.24,0,1.11-1,1.23-1.68,1.23h-2Z"/><polygon class="cls-1" points="49.27 32.95 49.27 36.34 51.3 36.34 51.3 37.11 48.36 37.11 48.36 32.95 49.27 32.95"/><path class="cls-1" d="M53.48,35.71l-.17,0-.18,0-.2,0-.19,0a.52.52,0,0,0-.15.07.45.45,0,0,0-.11.13.36.36,0,0,0,0,.19.38.38,0,0,0,0,.19.32.32,0,0,0,.11.12.44.44,0,0,0,.16.06l.19,0a.67.67,0,0,0,.38-.09.53.53,0,0,0,.2-.19.7.7,0,0,0,.08-.23,1.76,1.76,0,0,0,0-.19v-.31a.32.32,0,0,1-.14.08m-1.63-1.17a.9.9,0,0,1,.33-.31,1.55,1.55,0,0,1,.44-.17,2.83,2.83,0,0,1,.5-.05,2.45,2.45,0,0,1,.46,0,1.43,1.43,0,0,1,.43.12.86.86,0,0,1,.31.26.74.74,0,0,1,.12.44v1.57a2.56,2.56,0,0,0,0,.39.62.62,0,0,0,.08.28h-.84a1,1,0,0,1,0-.14.77.77,0,0,1,0-.15,1.08,1.08,0,0,1-.47.28,1.64,1.64,0,0,1-.54.08,1.36,1.36,0,0,1-.41,0,.88.88,0,0,1-.32-.16.74.74,0,0,1-.22-.28,1,1,0,0,1-.08-.4.91.91,0,0,1,.09-.43.83.83,0,0,1,.23-.26,1,1,0,0,1,.33-.15l.37-.08.37,0a1.53,1.53,0,0,0,.32,0,.5.5,0,0,0,.22-.1.25.25,0,0,0,.08-.2.43.43,0,0,0,0-.21.34.34,0,0,0-.12-.12.38.38,0,0,0-.16-.06h-.21a.64.64,0,0,0-.39.1.5.5,0,0,0-.16.35H51.7a.91.91,0,0,1,.15-.48"/><path class="cls-1" d="M58.8,35.5,58.28,34h0l-.55,1.53Zm0-2.55,1.56,4.16h-1L59,36.18H57.48l-.32.93h-.92L57.81,33Z"/><path class="cls-1" d="M62.18,36.33a.67.67,0,0,0,.22-.19.79.79,0,0,0,.13-.26,1.12,1.12,0,0,0,0-.32,2,2,0,0,0,0-.35.69.69,0,0,0-.12-.29.53.53,0,0,0-.21-.21.71.71,0,0,0-.34-.07.56.56,0,0,0-.3.07.48.48,0,0,0-.21.19.66.66,0,0,0-.12.27,1.12,1.12,0,0,0,0,.32,1.84,1.84,0,0,0,0,.33,1,1,0,0,0,.11.29.58.58,0,0,0,.21.2.53.53,0,0,0,.32.09.78.78,0,0,0,.31-.07m1.13,1a1,1,0,0,1-.21.43,1.22,1.22,0,0,1-.47.34,2,2,0,0,1-.83.14,1.73,1.73,0,0,1-.45-.05,1.6,1.6,0,0,1-.42-.17,1.14,1.14,0,0,1-.32-.3.92.92,0,0,1-.14-.44h.82a.49.49,0,0,0,.23.32.8.8,0,0,0,.39.09.61.61,0,0,0,.51-.21.76.76,0,0,0,.15-.53v-.4h0a.88.88,0,0,1-.38.36,1.35,1.35,0,0,1-.52.11,1.28,1.28,0,0,1-.58-.12,1.11,1.11,0,0,1-.41-.33,1.34,1.34,0,0,1-.23-.48,2.22,2.22,0,0,1-.07-.59,1.77,1.77,0,0,1,.09-.56,1.23,1.23,0,0,1,.24-.47,1.2,1.2,0,0,1,.41-.33,1.09,1.09,0,0,1,.55-.13,1.25,1.25,0,0,1,.53.11,1,1,0,0,1,.37.38h0v-.4h.79v2.82a2.27,2.27,0,0,1,0,.41"/><path class="cls-1" d="M65.81,34.8a.58.58,0,0,0-.45-.16.81.81,0,0,0-.33.06.6.6,0,0,0-.21.17.71.71,0,0,0-.11.21.88.88,0,0,0,0,.2H66a.89.89,0,0,0-.2-.48m-.94,1.58a.73.73,0,0,0,.54.19.75.75,0,0,0,.43-.13.52.52,0,0,0,.22-.26h.73a1.42,1.42,0,0,1-.54.77,1.53,1.53,0,0,1-.87.23,1.62,1.62,0,0,1-.64-.11,1.35,1.35,0,0,1-.48-.32,1.51,1.51,0,0,1-.31-.5,1.93,1.93,0,0,1-.11-.65A1.59,1.59,0,0,1,64,35a1.32,1.32,0,0,1,.31-.51A1.49,1.49,0,0,1,65.38,34a1.41,1.41,0,0,1,.67.15,1.31,1.31,0,0,1,.47.4,1.64,1.64,0,0,1,.26.57,1.89,1.89,0,0,1,.06.67H64.67a.84.84,0,0,0,.2.58"/><path class="cls-1" d="M68.1,34.09v.42h0a1,1,0,0,1,.41-.38A1.19,1.19,0,0,1,69,34a1.44,1.44,0,0,1,.55.09.85.85,0,0,1,.33.25,1,1,0,0,1,.17.39,2.1,2.1,0,0,1,0,.51v1.86h-.82v-1.7a1,1,0,0,0-.12-.56.46.46,0,0,0-.41-.18.55.55,0,0,0-.49.2,1.1,1.1,0,0,0-.16.66v1.58h-.82v-3Z"/><path class="cls-1" d="M72.16,34.64a.58.58,0,0,0-.33.09.8.8,0,0,0-.22.23,1.52,1.52,0,0,0-.12.32,1.87,1.87,0,0,0,0,.34,1.84,1.84,0,0,0,0,.33,1,1,0,0,0,.12.3.59.59,0,0,0,.54.32.6.6,0,0,0,.45-.17.79.79,0,0,0,.21-.45h.79a1.38,1.38,0,0,1-.46.92,1.52,1.52,0,0,1-1,.31,1.59,1.59,0,0,1-.62-.11,1.35,1.35,0,0,1-.48-.32,1.59,1.59,0,0,1-.31-.48,1.8,1.8,0,0,1-.11-.62,2.34,2.34,0,0,1,.1-.66,1.44,1.44,0,0,1,.3-.51,1.39,1.39,0,0,1,.49-.34,1.48,1.48,0,0,1,.65-.13,2.25,2.25,0,0,1,.52.07,1.63,1.63,0,0,1,.44.21,1.38,1.38,0,0,1,.32.36,1.27,1.27,0,0,1,.14.51h-.81a.56.56,0,0,0-.62-.52"/><path class="cls-1" d="M74.89,37.11h-.83v-3h.83ZM74.06,33h.83v.68h-.83Z"/><path class="cls-1" d="M77.27,35.71l-.17,0-.19,0-.2,0-.18,0-.16.07a.69.69,0,0,0-.11.13.49.49,0,0,0,0,.19.53.53,0,0,0,0,.19.43.43,0,0,0,.11.12.49.49,0,0,0,.17.06l.19,0a.69.69,0,0,0,.38-.09.61.61,0,0,0,.2-.19.7.7,0,0,0,.08-.23,1.42,1.42,0,0,0,0-.19v-.31a.29.29,0,0,1-.13.08m-1.64-1.17a1.08,1.08,0,0,1,.33-.31,1.5,1.5,0,0,1,.45-.17,2.73,2.73,0,0,1,.5-.05,2.45,2.45,0,0,1,.46,0,1.45,1.45,0,0,1,.42.12.9.9,0,0,1,.32.26.74.74,0,0,1,.12.44v1.57c0,.13,0,.26,0,.39a.78.78,0,0,0,.08.28h-.84l0-.14a.77.77,0,0,1,0-.15,1.14,1.14,0,0,1-.47.28,1.7,1.7,0,0,1-.55.08,1.29,1.29,0,0,1-.4,0,.92.92,0,0,1-.33-.16,1,1,0,0,1-.22-.28,1,1,0,0,1-.07-.4.91.91,0,0,1,.09-.43.72.72,0,0,1,.23-.26.84.84,0,0,1,.33-.15l.37-.08.36,0a1.43,1.43,0,0,0,.32,0,.41.41,0,0,0,.22-.1.22.22,0,0,0,.08-.2.44.44,0,0,0,0-.21.34.34,0,0,0-.12-.12.49.49,0,0,0-.17-.06h-.21a.61.61,0,0,0-.38.1.47.47,0,0,0-.16.35h-.83a1,1,0,0,1,.14-.48"/><path class="cls-1" d="M82.48,35.24a1.25,1.25,0,0,0-.12-.31.63.63,0,0,0-.22-.21.76.76,0,0,0-.68,0,.58.58,0,0,0-.23.21,1.25,1.25,0,0,0-.12.31,1.37,1.37,0,0,0,0,.36,2.21,2.21,0,0,0,0,.35,1,1,0,0,0,.13.31.69.69,0,0,0,.23.22.58.58,0,0,0,.33.09.68.68,0,0,0,.34-.08.77.77,0,0,0,.22-.22,1.52,1.52,0,0,0,.12-.32,2,2,0,0,0,0-.36,2,2,0,0,0,0-.35m0,1.48a.88.88,0,0,1-.38.36,1.32,1.32,0,0,1-.53.1,1.26,1.26,0,0,1-.6-.13,1.19,1.19,0,0,1-.42-.35,1.67,1.67,0,0,1-.25-.52,2,2,0,0,1-.09-.6,1.92,1.92,0,0,1,.09-.59,1.56,1.56,0,0,1,.25-.5,1.17,1.17,0,0,1,.42-.34,1.18,1.18,0,0,1,.58-.14,1.13,1.13,0,0,1,.51.12.87.87,0,0,1,.38.33h0V33h.83v4.16h-.79v-.39Z"/><path class="cls-1" d="M85.74,34.8a.58.58,0,0,0-.45-.16.81.81,0,0,0-.33.06.6.6,0,0,0-.21.17.71.71,0,0,0-.11.21.88.88,0,0,0,0,.2h1.34a.89.89,0,0,0-.2-.48m-.94,1.58a.73.73,0,0,0,.54.19.75.75,0,0,0,.43-.13.52.52,0,0,0,.22-.26h.73a1.42,1.42,0,0,1-.54.77,1.53,1.53,0,0,1-.87.23,1.62,1.62,0,0,1-.64-.11,1.35,1.35,0,0,1-.48-.32,1.51,1.51,0,0,1-.31-.5,1.93,1.93,0,0,1-.11-.65,1.59,1.59,0,0,1,.12-.62,1.32,1.32,0,0,1,.31-.51A1.49,1.49,0,0,1,85.31,34a1.41,1.41,0,0,1,.67.15,1.31,1.31,0,0,1,.47.4,1.64,1.64,0,0,1,.26.57,1.89,1.89,0,0,1,.06.67H84.6a.84.84,0,0,0,.2.58"/><rect class="cls-1" x="88.79" y="32.95" width="0.83" height="4.16"/><path class="cls-1" d="M92,35.71l-.17,0-.19,0-.2,0-.18,0a.59.59,0,0,0-.16.07.45.45,0,0,0-.11.13.49.49,0,0,0,0,.19.53.53,0,0,0,0,.19.35.35,0,0,0,.28.18l.19,0a.69.69,0,0,0,.38-.09.49.49,0,0,0,.19-.19.53.53,0,0,0,.08-.23,1.76,1.76,0,0,0,0-.19v-.31a.35.35,0,0,1-.13.08m-1.64-1.17a1.08,1.08,0,0,1,.33-.31,1.5,1.5,0,0,1,.45-.17,2.72,2.72,0,0,1,.49-.05,2.38,2.38,0,0,1,.46,0,1.43,1.43,0,0,1,.43.12.79.79,0,0,1,.31.26.68.68,0,0,1,.13.44v1.57a2.55,2.55,0,0,0,0,.39.62.62,0,0,0,.08.28h-.84s0-.1,0-.14,0-.1,0-.15a1,1,0,0,1-.46.28,1.7,1.7,0,0,1-.55.08,1.29,1.29,0,0,1-.4,0,.85.85,0,0,1-.33-.16,1,1,0,0,1-.22-.28,1,1,0,0,1-.08-.4.91.91,0,0,1,.09-.43.75.75,0,0,1,.24-.26.86.86,0,0,1,.32-.15l.37-.08.37,0a1.43,1.43,0,0,0,.32,0,.45.45,0,0,0,.22-.1.22.22,0,0,0,.08-.2.43.43,0,0,0,0-.21.25.25,0,0,0-.11-.12.49.49,0,0,0-.17-.06h-.21a.61.61,0,0,0-.38.1A.47.47,0,0,0,91,35h-.82a1,1,0,0,1,.14-.48"/><path class="cls-1" d="M96,35.55a1.32,1.32,0,0,0,.2.45,1.07,1.07,0,0,0,.35.32,1.05,1.05,0,0,0,.52.12,1.09,1.09,0,0,0,.53-.12,1.07,1.07,0,0,0,.35-.32,1.3,1.3,0,0,0,.19-.45,2.1,2.1,0,0,0,.06-.51,2.39,2.39,0,0,0-.06-.53,1.3,1.3,0,0,0-.19-.45,1,1,0,0,0-.35-.32,1.09,1.09,0,0,0-.53-.12,1.05,1.05,0,0,0-.52.12,1,1,0,0,0-.35.32,1.32,1.32,0,0,0-.2.45,2.39,2.39,0,0,0-.06.53,2.1,2.1,0,0,0,.06.51m-.83-1.37a1.94,1.94,0,0,1,.4-.7,1.87,1.87,0,0,1,.64-.46,2.29,2.29,0,0,1,1.73,0,2,2,0,0,1,.64.46,2.1,2.1,0,0,1,.4.7,2.67,2.67,0,0,1,.14.86,2.57,2.57,0,0,1-.14.85,2.05,2.05,0,0,1-.4.69,2.14,2.14,0,0,1-.64.46,2.42,2.42,0,0,1-1.73,0,2,2,0,0,1-.64-.46,1.9,1.9,0,0,1-.4-.69A2.33,2.33,0,0,1,95,35a2.43,2.43,0,0,1,.14-.86"/><polygon class="cls-1" points="100.57 32.95 102.31 35.74 102.32 35.74 102.32 32.95 103.18 32.95 103.18 37.11 102.26 37.11 100.53 34.32 100.52 34.32 100.52 37.11 99.66 37.11 99.66 32.95 100.57 32.95"/><path class="cls-1" d="M107,36.79a2.3,2.3,0,0,1-2.62,0,1.62,1.62,0,0,1-.46-1.26V33h.92v2.58a1.87,1.87,0,0,0,0,.34.55.55,0,0,0,.12.28.61.61,0,0,0,.26.21,1.08,1.08,0,0,0,.44.08.85.85,0,0,0,.68-.22,1.07,1.07,0,0,0,.19-.69V33h.91v2.58a1.59,1.59,0,0,1-.47,1.26"/><path class="cls-1" d="M50.13,43.48a.74.74,0,0,0,.22-.21.77.77,0,0,0,.12-.31,1.42,1.42,0,0,0,0-.36,1.39,1.39,0,0,0,0-.35,1,1,0,0,0-.12-.31.69.69,0,0,0-.23-.22.58.58,0,0,0-.33-.09.59.59,0,0,0-.34.09.58.58,0,0,0-.23.21,1.25,1.25,0,0,0-.12.31,2.19,2.19,0,0,0,0,.36,1.42,1.42,0,0,0,0,.36.77.77,0,0,0,.12.31.88.88,0,0,0,.22.21.74.74,0,0,0,.34.08.68.68,0,0,0,.34-.08m-1.07-2.39v.38h0a.91.91,0,0,1,.38-.35A1.13,1.13,0,0,1,50,41a1.31,1.31,0,0,1,.61.13,1.22,1.22,0,0,1,.42.36,1.35,1.35,0,0,1,.25.51,2.11,2.11,0,0,1,.09.62,1.9,1.9,0,0,1-.09.58,1.45,1.45,0,0,1-.24.5,1.28,1.28,0,0,1-.42.34,1.16,1.16,0,0,1-.58.13,1.13,1.13,0,0,1-.51-.12.89.89,0,0,1-.39-.33h0v1.43h-.83V41.09Z"/><path class="cls-1" d="M53.54,42.7l-.17,0-.18,0-.2,0-.19.05a.36.36,0,0,0-.15.08.32.32,0,0,0-.11.12.4.4,0,0,0,0,.2.34.34,0,0,0,0,.18.32.32,0,0,0,.11.12.44.44,0,0,0,.16.06l.19,0a.77.77,0,0,0,.38-.08.48.48,0,0,0,.2-.2.63.63,0,0,0,.08-.23,1.62,1.62,0,0,0,0-.18v-.31l-.14.07m-1.63-1.17a.9.9,0,0,1,.33-.31,1.29,1.29,0,0,1,.44-.16,2.12,2.12,0,0,1,.5-.05l.46,0a1.2,1.2,0,0,1,.43.13.84.84,0,0,1,.31.25.76.76,0,0,1,.12.44v1.57a2.38,2.38,0,0,0,0,.39.58.58,0,0,0,.08.28h-.84a.74.74,0,0,1,0-.14.77.77,0,0,1,0-.15,1.1,1.1,0,0,1-.47.29,2,2,0,0,1-.54.08,1.77,1.77,0,0,1-.41,0A.9.9,0,0,1,52,44a.67.67,0,0,1-.22-.28,1,1,0,0,1-.08-.4.8.8,0,0,1,.32-.69,1.66,1.66,0,0,1,.33-.15l.37-.07.37,0,.32,0a.9.9,0,0,0,.22-.1.28.28,0,0,0,.08-.2.41.41,0,0,0,0-.21.36.36,0,0,0-.11-.13.34.34,0,0,0-.17-.05.75.75,0,0,0-.21,0,.58.58,0,0,0-.39.11.46.46,0,0,0-.16.35h-.83a.92.92,0,0,1,.15-.49"/><path class="cls-1" d="M55.91,41.09v.56h0a1,1,0,0,1,.15-.26.87.87,0,0,1,.23-.2,1.16,1.16,0,0,1,.27-.14,1.06,1.06,0,0,1,.31,0l.18,0v.77l-.14,0h-.16a.86.86,0,0,0-.38.07.67.67,0,0,0-.26.21.79.79,0,0,0-.13.31,1.44,1.44,0,0,0,0,.37V44.1h-.82v-3Z"/><path class="cls-1" d="M59.15,42.7l-.17,0-.19,0-.2,0-.18.05a.48.48,0,0,0-.16.08.29.29,0,0,0-.1.12.39.39,0,0,0,0,.2.35.35,0,0,0,0,.18.25.25,0,0,0,.11.12.38.38,0,0,0,.16.06l.19,0a.77.77,0,0,0,.38-.08.48.48,0,0,0,.2-.2.63.63,0,0,0,.08-.23,1.28,1.28,0,0,0,0-.18v-.31a.4.4,0,0,1-.13.07m-1.63-1.17a1,1,0,0,1,.32-.31,1.27,1.27,0,0,1,.45-.16,2.07,2.07,0,0,1,.5-.05l.46,0a1.21,1.21,0,0,1,.42.13.8.8,0,0,1,.32.25.76.76,0,0,1,.12.44v1.57c0,.14,0,.27,0,.39a1,1,0,0,0,.08.28h-.83a.74.74,0,0,1,0-.14.77.77,0,0,1,0-.15,1.16,1.16,0,0,1-.47.29,2,2,0,0,1-.55.08,1.75,1.75,0,0,1-.4,0,.9.9,0,0,1-.32-.17.67.67,0,0,1-.22-.28.82.82,0,0,1-.08-.4.8.8,0,0,1,.32-.69,1.66,1.66,0,0,1,.33-.15l.37-.07.36,0,.33,0a.9.9,0,0,0,.22-.1.24.24,0,0,0,.07-.2.41.41,0,0,0,0-.21.3.3,0,0,0-.12-.13.31.31,0,0,0-.17-.05.65.65,0,0,0-.2,0,.57.57,0,0,0-.39.11.43.43,0,0,0-.16.35h-.83a.92.92,0,0,1,.15-.49"/><rect class="cls-1" x="62.28" y="39.94" width="0.83" height="4.16"/><path class="cls-1" d="M64.48,43a.78.78,0,0,0,.34.53.75.75,0,0,0,.35.08.8.8,0,0,0,.36-.08.66.66,0,0,0,.22-.22.77.77,0,0,0,.12-.31,1.34,1.34,0,0,0,0-.35,1.47,1.47,0,0,0,0-.36.84.84,0,0,0-.12-.31.66.66,0,0,0-.22-.22.8.8,0,0,0-.36-.08.75.75,0,0,0-.35.08.77.77,0,0,0-.22.22.84.84,0,0,0-.12.31,2.19,2.19,0,0,0,0,.36,2,2,0,0,0,0,.35m-.75-1a1.51,1.51,0,0,1,.31-.5,1.49,1.49,0,0,1,.49-.32,1.95,1.95,0,0,1,1.29,0,1.49,1.49,0,0,1,.49.32,1.53,1.53,0,0,1,.32.5,2,2,0,0,1,.11.66,1.88,1.88,0,0,1-.11.65,1.43,1.43,0,0,1-.32.5,1.49,1.49,0,0,1-.49.32,1.95,1.95,0,0,1-1.29,0,1.49,1.49,0,0,1-.49-.32,1.41,1.41,0,0,1-.31-.5,1.67,1.67,0,0,1-.11-.65,1.76,1.76,0,0,1,.11-.66"/><path class="cls-1" d="M67.91,43.35a.44.44,0,0,0,.14.16.72.72,0,0,0,.2.09l.24,0,.18,0a.36.36,0,0,0,.18-.07.33.33,0,0,0,.13-.11.35.35,0,0,0,0-.18c0-.13-.08-.22-.24-.29a5.29,5.29,0,0,0-.7-.18l-.35-.1a.92.92,0,0,1-.3-.14.69.69,0,0,1-.22-.23.59.59,0,0,1-.08-.34.93.93,0,0,1,.11-.47.86.86,0,0,1,.3-.3,1.5,1.5,0,0,1,.42-.15,2.59,2.59,0,0,1,.48,0,2.42,2.42,0,0,1,.47,0,1.41,1.41,0,0,1,.42.16,1,1,0,0,1,.3.29,1.24,1.24,0,0,1,.14.47H69a.34.34,0,0,0-.18-.32.79.79,0,0,0-.38-.09h-.16l-.14,0a.36.36,0,0,0-.12.08.24.24,0,0,0,0,.15.21.21,0,0,0,.08.18.42.42,0,0,0,.21.11,1.32,1.32,0,0,0,.3.08l.34.08.36.1a1.4,1.4,0,0,1,.3.15,1,1,0,0,1,.22.24.78.78,0,0,1,.08.35,1,1,0,0,1-.12.5,1,1,0,0,1-.31.33,1.55,1.55,0,0,1-.44.17,2.84,2.84,0,0,1-.51,0,2.22,2.22,0,0,1-.51-.06,1.23,1.23,0,0,1-.44-.17,1,1,0,0,1-.46-.83h.78a.41.41,0,0,0,.06.23"/><path class="cls-1" d="M73.85,41.82a.65.65,0,0,0,.47-.14.55.55,0,0,0,.16-.45.54.54,0,0,0-.16-.44.69.69,0,0,0-.47-.14h-1v1.17Zm.33-1.88a1.35,1.35,0,0,1,.5.09,1.14,1.14,0,0,1,.39.25,1,1,0,0,1,.24.36,1.13,1.13,0,0,1,.09.45,1.18,1.18,0,0,1-.16.63.94.94,0,0,1-.5.41h0a.69.69,0,0,1,.28.15,1,1,0,0,1,.18.22,1.42,1.42,0,0,1,.1.29,1.75,1.75,0,0,1,0,.32c0,.06,0,.14,0,.23a2.45,2.45,0,0,0,0,.27,1.93,1.93,0,0,0,0,.27.68.68,0,0,0,.1.21H74.6a1.57,1.57,0,0,1-.09-.47c0-.18,0-.36-.05-.53a.82.82,0,0,0-.2-.47.7.7,0,0,0-.5-.15h-.91V44.1h-.92V39.94Z"/><path class="cls-1" d="M77.79,41.79a.61.61,0,0,0-.45-.16.67.67,0,0,0-.33.07.83.83,0,0,0-.21.16.71.71,0,0,0-.11.21.81.81,0,0,0,0,.2H78a1,1,0,0,0-.21-.48m-.93,1.59a.72.72,0,0,0,.53.18.74.74,0,0,0,.44-.13.52.52,0,0,0,.22-.26h.72a1.32,1.32,0,0,1-.53.77,1.54,1.54,0,0,1-.88.24,1.61,1.61,0,0,1-.63-.12,1.27,1.27,0,0,1-.49-.32,1.48,1.48,0,0,1-.3-.5,1.91,1.91,0,0,1-.11-.64,1.81,1.81,0,0,1,.11-.63,1.55,1.55,0,0,1,.31-.51,1.51,1.51,0,0,1,.49-.33,1.59,1.59,0,0,1,.62-.12,1.41,1.41,0,0,1,.67.15,1.21,1.21,0,0,1,.47.4,1.54,1.54,0,0,1,.27.56,2.5,2.5,0,0,1,.06.67H76.66a.86.86,0,0,0,.2.59"/><path class="cls-1" d="M79,41.64v-.55h.49v-.23a.93.93,0,0,1,.25-.66,1,1,0,0,1,.76-.26h.44v.62l-.3,0a.34.34,0,0,0-.25.08.46.46,0,0,0-.07.27v.18h.57v.55h-.57V44.1h-.83V41.64Z"/><path class="cls-1" d="M83.25,44.1v-.42h0a.93.93,0,0,1-.41.38,1.19,1.19,0,0,1-.51.12,1.44,1.44,0,0,1-.55-.09.76.76,0,0,1-.33-.25.87.87,0,0,1-.17-.39,2,2,0,0,1-.05-.51V41.09H82v1.7a1.06,1.06,0,0,0,.12.56.46.46,0,0,0,.41.18.58.58,0,0,0,.49-.2,1.12,1.12,0,0,0,.16-.66V41.09H84v3Z"/><path class="cls-1" d="M86.35,43.32a.67.67,0,0,0,.22-.19.71.71,0,0,0,.13-.26,1.06,1.06,0,0,0,0-.31,1.9,1.9,0,0,0,0-.35.9.9,0,0,0-.12-.3.67.67,0,0,0-.21-.2.71.71,0,0,0-.34-.08.59.59,0,0,0-.51.26.8.8,0,0,0-.13.28,1.72,1.72,0,0,0,0,.64.92.92,0,0,0,.11.29.59.59,0,0,0,.53.29.64.64,0,0,0,.31-.07m1.13,1a1,1,0,0,1-.21.44,1.41,1.41,0,0,1-.48.34,2.05,2.05,0,0,1-.82.14,1.88,1.88,0,0,1-.46-.06A1.15,1.15,0,0,1,85.1,45a1,1,0,0,1-.32-.3.88.88,0,0,1-.14-.44h.82a.44.44,0,0,0,.23.32.8.8,0,0,0,.39.09.58.58,0,0,0,.51-.21.8.8,0,0,0,.15-.53v-.39h0a.8.8,0,0,1-.38.35,1.19,1.19,0,0,1-.52.11,1.35,1.35,0,0,1-.59-.12,1.13,1.13,0,0,1-.4-.32,1.48,1.48,0,0,1-.23-.49,2.15,2.15,0,0,1-.07-.58,2,2,0,0,1,.08-.56,1.57,1.57,0,0,1,.25-.48,1.19,1.19,0,0,1,1-.45,1.05,1.05,0,0,1,.52.11.9.9,0,0,1,.38.37h0v-.4h.79v2.82a2.17,2.17,0,0,1,0,.41"/><path class="cls-1" d="M89,44.1h-.83v-3H89Zm-.83-4.16H89v.68h-.83Z"/><path class="cls-1" d="M91.38,42.7l-.17,0-.19,0-.2,0-.18.05a.4.4,0,0,0-.16.08.32.32,0,0,0-.11.12.4.4,0,0,0,0,.2.34.34,0,0,0,0,.18.32.32,0,0,0,.11.12.44.44,0,0,0,.16.06l.2,0a.8.8,0,0,0,.38-.08.52.52,0,0,0,.19-.2.49.49,0,0,0,.08-.23,1.62,1.62,0,0,0,0-.18v-.31l-.13.07m-1.64-1.17a1.08,1.08,0,0,1,.33-.31,1.29,1.29,0,0,1,.44-.16A2.18,2.18,0,0,1,91,41a3.55,3.55,0,0,1,.46,0,1.2,1.2,0,0,1,.43.13.69.69,0,0,1,.43.69v1.57a2.38,2.38,0,0,0,0,.39.58.58,0,0,0,.08.28H91.6a.74.74,0,0,1,0-.14c0-.05,0-.1,0-.15a1.12,1.12,0,0,1-.46.29,2,2,0,0,1-.55.08,1.62,1.62,0,0,1-.4,0A.86.86,0,0,1,89.8,44a.76.76,0,0,1-.22-.28,1,1,0,0,1-.08-.4.87.87,0,0,1,.09-.42.78.78,0,0,1,.24-.27,1.35,1.35,0,0,1,.32-.15l.37-.07.37,0,.32,0a.76.76,0,0,0,.22-.1.24.24,0,0,0,.08-.2.41.41,0,0,0-.05-.21.28.28,0,0,0-.11-.13.34.34,0,0,0-.17-.05.71.71,0,0,0-.21,0,.56.56,0,0,0-.38.11.44.44,0,0,0-.17.35H89.6a1,1,0,0,1,.14-.49"/><path class="cls-1" d="M95,42.23a1.25,1.25,0,0,0-.12-.31.88.88,0,0,0-.22-.21.76.76,0,0,0-.68,0,.69.69,0,0,0-.23.22.77.77,0,0,0-.12.31,1.34,1.34,0,0,0,0,.35,1.39,1.39,0,0,0,0,.35,1,1,0,0,0,.13.31.72.72,0,0,0,.23.23.67.67,0,0,0,.33.08.68.68,0,0,0,.34-.08.77.77,0,0,0,.22-.22A1.25,1.25,0,0,0,95,43a2.19,2.19,0,0,0,0-.36,2,2,0,0,0,0-.36m0,1.49a.85.85,0,0,1-.38.35,1.32,1.32,0,0,1-.53.11,1.4,1.4,0,0,1-.6-.13,1.22,1.22,0,0,1-.42-.36,1.48,1.48,0,0,1-.25-.52,2,2,0,0,1,0-1.19,1.34,1.34,0,0,1,.25-.49,1.21,1.21,0,0,1,1-.48,1.12,1.12,0,0,1,.51.11.9.9,0,0,1,.38.34h0V39.94h.83V44.1h-.79v-.38Z"/><path class="cls-1" d="M97.22,43a1.25,1.25,0,0,0,.12.31.69.69,0,0,0,.23.22.72.72,0,0,0,.35.08.75.75,0,0,0,.35-.08.8.8,0,0,0,.23-.22,1.25,1.25,0,0,0,.12-.31,2,2,0,0,0,0-.35,2.19,2.19,0,0,0,0-.36,1.43,1.43,0,0,0-.12-.31.8.8,0,0,0-.23-.22.75.75,0,0,0-.35-.08.72.72,0,0,0-.35.08.69.69,0,0,0-.23.22,1.43,1.43,0,0,0-.12.31,2.19,2.19,0,0,0,0,.36,2,2,0,0,0,0,.35m-.75-1a1.53,1.53,0,0,1,.32-.5,1.31,1.31,0,0,1,.49-.32,1.83,1.83,0,0,1,.64-.11,1.87,1.87,0,0,1,.64.11,1.39,1.39,0,0,1,.49.32,1.53,1.53,0,0,1,.32.5,2,2,0,0,1,.11.66,1.88,1.88,0,0,1-.11.65,1.43,1.43,0,0,1-.32.5,1.39,1.39,0,0,1-.49.32,1.87,1.87,0,0,1-.64.11,1.83,1.83,0,0,1-.64-.11,1.31,1.31,0,0,1-.49-.32,1.43,1.43,0,0,1-.32-.5,1.88,1.88,0,0,1-.11-.65,2,2,0,0,1,.11-.66"/><path class="cls-1" d="M100.65,43.35a.46.46,0,0,0,.15.16.53.53,0,0,0,.2.09.85.85,0,0,0,.23,0l.19,0a.36.36,0,0,0,.17-.07.28.28,0,0,0,.13-.11.27.27,0,0,0,0-.18c0-.13-.08-.22-.24-.29a5.52,5.52,0,0,0-.69-.18l-.36-.1a1,1,0,0,1-.3-.14.8.8,0,0,1-.22-.23.68.68,0,0,1-.08-.34.93.93,0,0,1,.11-.47.86.86,0,0,1,.3-.3,1.5,1.5,0,0,1,.42-.15,2.59,2.59,0,0,1,.48,0,2.52,2.52,0,0,1,.48,0,1.35,1.35,0,0,1,.41.16,1,1,0,0,1,.3.29,1.08,1.08,0,0,1,.14.47h-.79a.34.34,0,0,0-.18-.32.76.76,0,0,0-.38-.09H101l-.15,0a.5.5,0,0,0-.12.08.24.24,0,0,0,0,.15.23.23,0,0,0,.08.18.42.42,0,0,0,.21.11,1.32,1.32,0,0,0,.3.08l.35.08.35.1a1.2,1.2,0,0,1,.3.15.83.83,0,0,1,.22.24.67.67,0,0,1,.08.35,1,1,0,0,1-.12.5,1,1,0,0,1-.31.33,1.44,1.44,0,0,1-.44.17,2.73,2.73,0,0,1-.5,0,2.24,2.24,0,0,1-.52-.06,1.3,1.3,0,0,1-.44-.17,1,1,0,0,1-.46-.83h.79a.52.52,0,0,0,.05.23"/><path class="cls-1" d="M53,18.18,48.35,30.86h3.93l.57-1.81h4l.53,1.81h4.05L56.85,18.18Zm1.9,4.24h0l1.14,3.91H53.7Z"/><path class="cls-1" d="M73.45,22.9H69.64a3,3,0,0,0-.54-1.24A1.74,1.74,0,0,0,67.6,21a2,2,0,0,0-1.84,1,4.87,4.87,0,0,0-.58,2.48A4.82,4.82,0,0,0,65.76,27a2,2,0,0,0,1.84,1A1.73,1.73,0,0,0,69,27.45a3.31,3.31,0,0,0,.66-1.55H73.5a4.93,4.93,0,0,1-.39,1.9A5.34,5.34,0,0,1,72,29.51a5.66,5.66,0,0,1-1.85,1.21,6.28,6.28,0,0,1-2.42.45,6.6,6.6,0,0,1-3.45-.87A5.69,5.69,0,0,1,62,27.91a7.47,7.47,0,0,1-.76-3.39,7.74,7.74,0,0,1,.45-2.71A5.91,5.91,0,0,1,63,19.7a5.62,5.62,0,0,1,2-1.36,7.08,7.08,0,0,1,2.63-.46,7.42,7.42,0,0,1,2.3.33,4.82,4.82,0,0,1,1.75,1,4.67,4.67,0,0,1,1.16,1.59,6.8,6.8,0,0,1,.54,2.12"/><polygon class="cls-1" points="82.71 18.18 82.71 24.96 82.68 24.96 78.98 18.18 74.98 18.18 74.98 30.86 78.68 30.86 78.68 23.93 78.72 23.93 82.6 30.86 86.41 30.86 86.41 18.18 82.71 18.18"/><path class="cls-1" d="M99.81,18.18V26a5,5,0,0,1-1.44,3.91A6.29,6.29,0,0,1,94,31.17a8.65,8.65,0,0,1-2.54-.33,4.71,4.71,0,0,1-1.8-1,3.94,3.94,0,0,1-1.09-1.63A6.67,6.67,0,0,1,88.24,26V18.18h3.91v6.91a9.9,9.9,0,0,0,.09,1.48,1.84,1.84,0,0,0,.53,1,1.75,1.75,0,0,0,1.28.42,1.67,1.67,0,0,0,1.25-.42,1.81,1.81,0,0,0,.51-1,9.9,9.9,0,0,0,.09-1.48V18.18Z"/><path class="cls-1" d="M101.62,30.86V18.18h7.44a5.3,5.3,0,0,1,1.6.24,3.88,3.88,0,0,1,1.34.69,3.18,3.18,0,0,1,.88,1.14,3.54,3.54,0,0,1,.32,1.56,4,4,0,0,1-.48,1.94A2.63,2.63,0,0,1,111.3,25a2.43,2.43,0,0,1,1.27,1.13,4.8,4.8,0,0,1,.6,2q0,.26.06.9c0,.43.07.8.12,1.1a2.16,2.16,0,0,0,.24.71h-3.9a8.73,8.73,0,0,1-.32-1.95,10.13,10.13,0,0,0-.19-1.28,1.59,1.59,0,0,0-.49-.85,1.54,1.54,0,0,0-1.08-.34h-2.08v4.42Zm3.91-9.66v2.52h2a2.65,2.65,0,0,0,1.22-.25,1,1,0,0,0,.49-1,1.08,1.08,0,0,0-.43-.94,2.6,2.6,0,0,0-1.5-.32Z"/></g></g></svg>