<svg xmlns="http://www.w3.org/2000/svg" viewBox="0 0 104.92 39.58"><defs><style>.cls-1{fill:#304184;}</style></defs><g id="Layer_2" data-name="Layer 2"><g id="Layer_2-2" data-name="Layer 2"><path class="cls-1" d="M66.68,13.15C66.68,6.25,61.37,0,52.82,0,44,0,39.07,6.44,39.07,13.26c0,7.16,5.5,13.11,13.56,13.11,8.4,0,14.05-5.84,14.05-13.22m-23.81.11A9.59,9.59,0,0,1,53,3.46a9.67,9.67,0,0,1,9.94,9.65,10.77,10.77,0,0,1-2.56,6.78,10.55,10.55,0,0,1-7.49,3.05c-5.39,0-10-3.84-10-9.68"/><rect class="cls-1" x="70.98" y="0.34" width="3.69" height="25.69"/><polygon class="cls-1" points="101.49 0.34 92.98 10.89 84.43 0.34 80.96 0.34 80.96 26.03 84.65 26.03 84.65 6.03 92.64 15.97 93.32 15.97 101.23 6.03 101.23 26.03 104.92 26.03 104.92 0.34 101.49 0.34"/><path class="cls-1" d="M4.63,30.79a4.4,4.4,0,1,0-.06,8.79,4.4,4.4,0,1,0,.06-8.79m2.51,6.63a3.52,3.52,0,0,1-2.5,1,3.25,3.25,0,1,1,0-6.49A3.22,3.22,0,0,1,8,35.16a3.6,3.6,0,0,1-.86,2.26"/><polygon class="cls-1" points="17.66 37.55 11.89 30.91 10.9 30.91 10.9 39.47 12.05 39.47 12.05 32.88 17.78 39.47 18.83 39.47 18.83 30.91 17.66 30.91 17.66 37.55"/><path class="cls-1" d="M27.15,35.77a3.46,3.46,0,0,1-.24,1.59,2.33,2.33,0,0,1-2.21,1.13,2.51,2.51,0,0,1-1.92-.71c-.44-.45-.54-.88-.54-2V30.91H21v4.86a4.46,4.46,0,0,0,.47,2.32,3.71,3.71,0,0,0,3.22,1.49,4,4,0,0,0,2.7-.93,3.57,3.57,0,0,0,1-2.88V30.91H27.15Z"/><polygon class="cls-1" points="38.07 34.42 35.22 30.91 34.07 30.91 34.07 39.47 35.3 39.47 35.3 32.8 37.96 36.12 38.19 36.12 40.82 32.8 40.82 39.47 42.05 39.47 42.05 30.91 40.91 30.91 38.07 34.42"/><rect class="cls-1" x="44.48" y="30.91" width="1.23" height="8.56"/><path class="cls-1" d="M52.32,36.34H54v1.78a5.35,5.35,0,0,1-1.87.38A3.31,3.31,0,1,1,52,31.89a6,6,0,0,1,3,.89V31.52a7.18,7.18,0,0,0-3-.73,4.44,4.44,0,0,0-4.63,4.47,4.32,4.32,0,0,0,4.68,4.32,7.51,7.51,0,0,0,3.14-.7V35.26H52.32Z"/><path class="cls-1" d="M61,35.4a2.15,2.15,0,0,0,1.43-2.11,2.22,2.22,0,0,0-1.35-2.11,3.52,3.52,0,0,0-1.47-.27H57.49v8.56H58.7V35.74H59c.59,0,1,0,1.85,1.08.27.36,1.47,2.23,1.75,2.65h1.46c-.59-.83-.8-1.12-1.17-1.71A7.22,7.22,0,0,0,61,35.4m-.65-.88a4.17,4.17,0,0,1-1.19.13H58.7V32h.38a3.42,3.42,0,0,1,1.46.2,1.25,1.25,0,0,1,.65,1.14,1.29,1.29,0,0,1-.82,1.23"/><path class="cls-1" d="M68.11,30.86l-3.68,8.61h1.26L66.77,37h3.64l1.14,2.52h1.26L69,30.86Zm-.87,5,1.28-3.1,1.39,3.1Z"/><path class="cls-1" d="M74.56,35.21A3.25,3.25,0,0,1,78,32a6,6,0,0,1,3,.86V31.5a7.57,7.57,0,0,0-3-.71,4.48,4.48,0,0,0-4.63,4.41,4.35,4.35,0,0,0,4.61,4.38A6.32,6.32,0,0,0,81,38.83V37.49a5.6,5.6,0,0,1-3,.95,3.19,3.19,0,0,1-3.4-3.23"/><rect class="cls-1" x="83.1" y="30.91" width="1.23" height="8.56"/><polygon class="cls-1" points="90.85 28.43 89.93 30.32 90.58 30.32 92.64 28.43 90.85 28.43"/><path class="cls-1" d="M90.82,30.79a4.4,4.4,0,1,0,4.62,4.39,4.37,4.37,0,0,0-4.62-4.39m2.51,6.63a3.52,3.52,0,0,1-2.5,1,3.25,3.25,0,1,1,3.36-3.28,3.6,3.6,0,0,1-.86,2.26"/><polygon class="cls-1" points="103.61 37.55 97.83 30.91 96.84 30.91 96.84 39.47 97.99 39.47 97.99 32.88 103.72 39.47 104.77 39.47 104.77 30.91 103.61 30.91 103.61 37.55"/><path class="cls-1" d="M13.48,10.76a.52.52,0,1,0-.53-.52.52.52,0,0,0,.53.52"/><path class="cls-1" d="M19.46,11.13a.23.23,0,0,0-.21-.15H17.68a.22.22,0,0,0-.2.14l-1,2.36h-1l-1-2.36a.22.22,0,0,0-.2-.14H12.67a.22.22,0,0,0-.2.14l-1.06,2.49a.24.24,0,0,0,.08.29l.12,0a.23.23,0,0,0,.21-.13l.93-2.2.07,2.14-.35,2.71a.26.26,0,0,0,.14.25h.08a.23.23,0,0,0,.23-.2l.33-2.58h.45L14,16.51a.22.22,0,0,0,.22.2h.08a.24.24,0,0,0,.14-.25l-.35-2.71.07-2.14.93,2.2h0l0,0h0l0,0h0l0,0h.32l-.31,1.53a.39.39,0,0,0,.08.31.36.36,0,0,0,.16.11v.64a.19.19,0,1,0,.38,0V15.9h.28v.62a.19.19,0,0,0,.38,0v-.64a.36.36,0,0,0,.16-.11.39.39,0,0,0,.08-.31l-.3-1.53h.27l0,0h0l0,0h0l0,0h0l0,0h0l1-2.28.19.93a.9.9,0,0,1,0,.46l-.88,3.8h2.75L19,12.9a1,1,0,0,1,0-.45l.19-.94.75,1.84a.24.24,0,0,0,.21.14l.08,0a.23.23,0,0,0,.13-.29Z"/><path class="cls-1" d="M18.46,10.76a.52.52,0,1,0,0-1,.52.52,0,0,0,0,1"/><path class="cls-1" d="M16,13.37a.39.39,0,0,0,.39-.39.38.38,0,0,0-.39-.39.39.39,0,0,0-.39.39.4.4,0,0,0,.39.39"/><path class="cls-1" d="M24.08.39c.7.65,1.69,1.79,1.69,1.79a16.16,16.16,0,0,1,4.15,10.36c0,.05,0,.09,0,.13H25.57C24.91,5.81,19.45.39,12.82.39,5.74.39,0,6.48,0,14A18.91,18.91,0,0,0,4.91,26H7.63c-.71-.65-1.7-1.79-1.7-1.79A16.18,16.18,0,0,1,1.79,13.88v-.12H6.13C6.79,20.62,12.25,26,18.89,26,26,26,31.7,20,31.7,12.43a18.91,18.91,0,0,0-4.91-12Zm-.3,12.28H21.55v-.05a8.15,8.15,0,0,0-1-3.76h2.19a12.12,12.12,0,0,1,1,3.81m-1.4-4.61H20.1a9.4,9.4,0,0,0-3.25-3,7.78,7.78,0,0,0,1.62-1.21,11.5,11.5,0,0,1,3.91,4.22m-9-5.87a10.56,10.56,0,0,1,4.52,1.29,7.32,7.32,0,0,1-4.52,1.91Zm0,3.87A8.07,8.07,0,0,0,16,5.46a8.29,8.29,0,0,1,3.23,2.6h-5.9Zm-.8-3.88V5.4a7.28,7.28,0,0,1-4.68-2,10.49,10.49,0,0,1,4.68-1.25m0,3.89v2h-6a8.29,8.29,0,0,1,3.23-2.6,8.23,8.23,0,0,0,2.78.61M7.24,3.78A8.07,8.07,0,0,0,8.92,5.05a9.31,9.31,0,0,0-3.25,3H3.25a11.41,11.41,0,0,1,4-4.28M1.82,13a12.37,12.37,0,0,1,1-4.1H5.19a8,8,0,0,0-1,3.76c0,.06,0,.23,0,.34Zm6.1.8h2.23v.05a8,8,0,0,0,1,3.76H8.93a12.39,12.39,0,0,1-1-3.81m1.41,4.61H11.6a9.4,9.4,0,0,0,3.25,3,8,8,0,0,0-1.62,1.21,11.39,11.39,0,0,1-3.9-4.22m9,5.87A10.6,10.6,0,0,1,13.84,23,7.26,7.26,0,0,1,18.36,21Zm0-3.87a8.19,8.19,0,0,0-2.67.6,8.36,8.36,0,0,1-3.23-2.6h5.9Zm-6.43-2.8a7.39,7.39,0,0,1-1.07-3.76V13H4.92v-.34A7.39,7.39,0,0,1,6,8.86H19.78a7.49,7.49,0,0,1,1.07,3.76v.05h0v.8h6c0,.1,0,.25,0,.34a7.4,7.4,0,0,1-1.08,3.76Zm13.25.8A8.39,8.39,0,0,1,21.94,21a8.42,8.42,0,0,0-2.78-.61v-2Zm-6,5.88V21a7.28,7.28,0,0,1,4.68,2,10.46,10.46,0,0,1-4.68,1.25m5.3-1.61a8.11,8.11,0,0,0-1.68-1.26,9.31,9.31,0,0,0,3.25-3h2.43a11.49,11.49,0,0,1-4,4.27m4.39-5.07H26.51a8,8,0,0,0,1-3.76v-.34h2.39a12.13,12.13,0,0,1-1,4.1"/></g></g></svg>