<svg id="Layer_1" data-name="Layer 1" xmlns="http://www.w3.org/2000/svg" viewBox="0 0 104.92 39.58"><defs><style>.cls-1{fill:#fff;}</style></defs><title>oim2</title><g id="Layer_2" data-name="Layer 2"><g id="Layer_2-2" data-name="Layer 2-2"><path class="cls-1" d="M66.68,13.15C66.68,6.25,61.37,0,52.82,0,44,0,39.07,6.44,39.07,13.26c0,7.16,5.5,13.11,13.56,13.11,8.4,0,14.05-5.84,14.05-13.22m-23.81.11a9.59,9.59,0,0,1,9.36-9.81c.26,0,.51,0,.77,0a9.67,9.67,0,0,1,9.94,9.4v.25a10.75,10.75,0,0,1-2.56,6.78,10.55,10.55,0,0,1-7.49,3.05c-5.39,0-10-3.84-10-9.68"/><rect class="cls-1" x="70.98" y="0.34" width="3.69" height="25.69"/><polygon class="cls-1" points="101.49 0.34 92.98 10.89 84.43 0.34 80.96 0.34 80.96 26.03 84.65 26.03 84.65 6.03 92.64 15.97 93.32 15.97 101.23 6.03 101.23 26.03 104.92 26.03 104.92 0.34 101.49 0.34"/><path class="cls-1" d="M4.63,30.79a4.4,4.4,0,0,0-.48,8.79c.14,0,.28,0,.42,0a4.4,4.4,0,0,0,.48-8.79H4.63m2.51,6.63a3.54,3.54,0,0,1-2.5,1,3.25,3.25,0,1,1-.36-6.49h.36A3.22,3.22,0,0,1,8,35v.15a3.6,3.6,0,0,1-.86,2.26"/><polygon class="cls-1" points="17.66 37.55 11.89 30.91 10.9 30.91 10.9 39.47 12.05 39.47 12.05 32.88 17.78 39.47 18.83 39.47 18.83 30.91 17.66 30.91 17.66 37.55"/><path class="cls-1" d="M27.15,35.77a3.45,3.45,0,0,1-.24,1.59,2.33,2.33,0,0,1-2.21,1.13,2.5,2.5,0,0,1-1.92-.71c-.44-.45-.54-.88-.54-2V30.91H21v4.86a4.45,4.45,0,0,0,.47,2.32,3.71,3.71,0,0,0,3.22,1.49,4,4,0,0,0,2.7-.93,3.57,3.57,0,0,0,1-2.88V30.91H27.15Z"/><polygon class="cls-1" points="38.07 34.42 35.22 30.91 34.07 30.91 34.07 39.47 35.3 39.47 35.3 32.8 37.96 36.12 38.19 36.12 40.82 32.8 40.82 39.47 42.05 39.47 42.05 30.91 40.91 30.91 38.07 34.42"/><rect class="cls-1" x="44.48" y="30.91" width="1.23" height="8.56"/><path class="cls-1" d="M52.32,36.34H54v1.78a5.25,5.25,0,0,1-1.87.38,3.31,3.31,0,1,1-.47-6.6H52a6,6,0,0,1,3,.89V31.52a7.13,7.13,0,0,0-3-.73A4.45,4.45,0,0,0,47.37,35v.22a4.32,4.32,0,0,0,4.3,4.34l.38,0a7.42,7.42,0,0,0,3.14-.7V35.26H52.32Z"/><path class="cls-1" d="M61,35.4a2.14,2.14,0,0,0,1.43-2.11,2.23,2.23,0,0,0-1.35-2.11,3.55,3.55,0,0,0-1.47-.27H57.49v8.56H58.7V35.74H59c.59,0,1,0,1.85,1.08.27.36,1.47,2.23,1.75,2.65h1.46c-.59-.83-.8-1.12-1.17-1.71A7.23,7.23,0,0,0,61,35.4m-.65-.88a4.35,4.35,0,0,1-1.19.13H58.7V32h.38a3.45,3.45,0,0,1,1.46.2,1.26,1.26,0,0,1,.65,1.14,1.3,1.3,0,0,1-.82,1.23"/><path class="cls-1" d="M68.11,30.86l-3.68,8.61h1.26L66.77,37h3.64l1.14,2.52h1.26L69,30.86Zm-.87,5,1.28-3.1,1.39,3.1Z"/><path class="cls-1" d="M74.56,35.21A3.26,3.26,0,0,1,77.84,32H78a6,6,0,0,1,3,.86V31.5a7.59,7.59,0,0,0-3-.71,4.49,4.49,0,0,0-4.63,4.33v.08a4.35,4.35,0,0,0,4.31,4.39H78a6.26,6.26,0,0,0,3-.75V37.49a5.55,5.55,0,0,1-3,.95,3.18,3.18,0,0,1-3.39-3,2.26,2.26,0,0,1,0-.26"/><rect class="cls-1" x="83.1" y="30.91" width="1.23" height="8.56"/><polygon class="cls-1" points="90.85 28.43 89.93 30.32 90.58 30.32 92.64 28.43 90.85 28.43"/><path class="cls-1" d="M90.82,30.79a4.33,4.33,0,1,0,.28,0h-.28m2.51,6.63a3.54,3.54,0,0,1-2.5,1,3.25,3.25,0,1,1,3.36-3.28,3.6,3.6,0,0,1-.86,2.26"/><polygon class="cls-1" points="103.61 37.55 97.83 30.91 96.84 30.91 96.84 39.47 97.99 39.47 97.99 32.88 103.72 39.47 104.77 39.47 104.77 30.91 103.61 30.91 103.61 37.55"/><path class="cls-1" d="M13.48,10.76a.52.52,0,0,0,0-1,.53.53,0,0,0-.51.52.52.52,0,0,0,.52.52h0"/><path class="cls-1" d="M19.46,11.13a.23.23,0,0,0-.21-.15H17.68a.22.22,0,0,0-.2.14l-1,2.36h-1l-1-2.36a.22.22,0,0,0-.2-.14H12.67a.22.22,0,0,0-.2.14l-1.06,2.49a.25.25,0,0,0,.08.29h.12a.23.23,0,0,0,.21-.13l.93-2.2.07,2.14-.35,2.71a.27.27,0,0,0,.14.25h.08a.23.23,0,0,0,.23-.2l.33-2.58h.45l.3,2.62a.23.23,0,0,0,.22.2h.08a.23.23,0,0,0,.14-.25l-.35-2.71.07-2.14.93,2.2h.32l-.31,1.53a.39.39,0,0,0,.08.31.36.36,0,0,0,.16.11v.64a.19.19,0,1,0,.38,0v-.5H16v.62a.19.19,0,0,0,.38,0v-.64a.36.36,0,0,0,.16-.11.39.39,0,0,0,.08-.31l-.3-1.53h.27l1-2.28.19.93a.9.9,0,0,1,0,.46l-.88,3.8h2.75L19,12.9a1.14,1.14,0,0,1,0-.45l.19-.94.75,1.84a.24.24,0,0,0,.21.14h.08a.23.23,0,0,0,.13-.29Z"/><path class="cls-1" d="M18.46,10.76a.51.51,0,0,0,.64-.36.52.52,0,0,0-.35-.64.48.48,0,0,0-.29,0,.52.52,0,0,0,0,1"/><path class="cls-1" d="M16,13.37a.38.38,0,0,0,.39-.39.38.38,0,0,0-.37-.39h0a.38.38,0,0,0-.39.39h0a.41.41,0,0,0,.39.39"/><path class="cls-1" d="M24.08.39c.7.65,1.69,1.79,1.69,1.79a16.15,16.15,0,0,1,4.15,10.36v.13H25.57C24.91,5.81,19.45.39,12.82.39,5.74.39,0,6.48,0,14A18.92,18.92,0,0,0,4.91,26H7.63c-.71-.65-1.7-1.79-1.7-1.79A16.21,16.21,0,0,1,1.79,13.88v-.12H6.13C6.79,20.62,12.25,26,18.89,26,26,26,31.7,20,31.7,12.43a18.92,18.92,0,0,0-4.91-12Zm-.3,12.28H21.55v-.05a8.09,8.09,0,0,0-1-3.76h2.19a12,12,0,0,1,1,3.81m-1.4-4.61H20.1a9.44,9.44,0,0,0-3.25-3,8,8,0,0,0,1.62-1.21,11.4,11.4,0,0,1,3.91,4.22m-9-5.87A10.56,10.56,0,0,1,17.9,3.49,7.32,7.32,0,0,1,13.38,5.4Zm0,3.87A8.14,8.14,0,0,0,16,5.46a8.27,8.27,0,0,1,3.23,2.6h-5.9Zm-.8-3.88V5.4a7.26,7.26,0,0,1-4.68-2,10.48,10.48,0,0,1,4.68-1.25m0,3.89V8h-6a8.27,8.27,0,0,1,3.23-2.6,8.25,8.25,0,0,0,2.78.61M7.24,3.78A8.34,8.34,0,0,0,8.92,5.05a9.25,9.25,0,0,0-3.25,3H3.25a11.42,11.42,0,0,1,4-4.28M1.82,13a12.39,12.39,0,0,1,1-4.1H5.19a8,8,0,0,0-1,3.76V13Zm6.1.8h2.23v0a8,8,0,0,0,1,3.76H8.93a12.55,12.55,0,0,1-1-3.81m1.41,4.61H11.6a9.44,9.44,0,0,0,3.25,3,8,8,0,0,0-1.62,1.21,11.38,11.38,0,0,1-3.9-4.22m9,5.87A10.55,10.55,0,0,1,13.84,23a7.32,7.32,0,0,1,4.52-2Zm0-3.87a8.16,8.16,0,0,0-2.67.6,8.36,8.36,0,0,1-3.23-2.6h5.9ZM11.9,17.6a7.32,7.32,0,0,1-1.07-3.76V13H4.92v-.34A7.4,7.4,0,0,1,6,8.86H19.78a7.55,7.55,0,0,1,1.07,3.76v.05h0v.8h6v.34a7.43,7.43,0,0,1-1.08,3.76Zm13.25.8A8.46,8.46,0,0,1,21.94,21a8.36,8.36,0,0,0-2.78-.61v-2Zm-6,5.88V21a7.26,7.26,0,0,1,4.68,2,10.35,10.35,0,0,1-4.68,1.25m5.3-1.61a8.29,8.29,0,0,0-1.68-1.26,9.25,9.25,0,0,0,3.25-3h2.43a11.47,11.47,0,0,1-4,4.27m4.39-5.07H26.51a8,8,0,0,0,1-3.76v-.34H29.9a12.15,12.15,0,0,1-1,4.1"/></g></g></svg>